<?xml version="1.0" encoding="UTF-8" standalone="no"?>
<svg width="40px" height="40px" viewBox="0 0 40 40" version="1.1" xmlns="http://www.w3.org/2000/svg" xmlns:xlink="http://www.w3.org/1999/xlink" xmlns:sketch="http://www.bohemiancoding.com/sketch/ns">
    <!-- Generator: Sketch 3.4.4 (17249) - http://www.bohemiancoding.com/sketch -->
    <title>Imported Layers</title>
    <desc>Created with Sketch.</desc>
    <defs></defs>
    <g id="Page-1" stroke="none" stroke-width="1" fill="none" fill-rule="evenodd" sketch:type="MSPage">
        <g id="Landing-Sandy" sketch:type="MSArtboardGroup" transform="translate(-929.000000, -602.000000)" fill="#E6007E">
            <path d="M949,602 C937.933333,602 929,610.933333 929,622 C929,633.066667 937.933333,642 949,642 C960.066667,642 969,633.066667 969,622 C969,610.933333 960.066667,602 949,602 L949,602 Z M952.155556,633.111111 C952.155556,634.088889 951.311111,634.933333 950.333333,634.933333 L947.577778,634.933333 C946.6,634.933333 945.755556,634.088889 945.755556,633.111111 L945.755556,621.466667 C945.755556,620.444444 946.6,619.644444 947.577778,619.644444 L950.333333,619.644444 C951.311111,619.644444 952.155556,620.488889 952.155556,621.466667 L952.155556,633.111111 L952.155556,633.111111 Z M948.955556,616.622222 C946.911111,616.622222 945.222222,614.933333 945.222222,612.844444 C945.222222,610.755556 946.911111,609.066667 948.955556,609.066667 C951.044444,609.066667 952.733333,610.755556 952.733333,612.844444 C952.733333,614.933333 951.044444,616.622222 948.955556,616.622222 L948.955556,616.622222 Z" id="Imported-Layers" sketch:type="MSShapeGroup"></path>
        </g>
    </g>
</svg>