<?xml version="1.0" encoding="UTF-8" standalone="no"?>
<svg width="40px" height="40px" viewBox="0 0 40 40" version="1.1" xmlns="http://www.w3.org/2000/svg" xmlns:xlink="http://www.w3.org/1999/xlink" xmlns:sketch="http://www.bohemiancoding.com/sketch/ns">
    <!-- Generator: Sketch 3.4.3 (16044) - http://www.bohemiancoding.com/sketch -->
    <title>Imported Layers</title>
    <desc>Created with Sketch.</desc>
    <defs></defs>
    <g id="Page-1" stroke="none" stroke-width="1" fill="none" fill-rule="evenodd" sketch:type="MSPage">
        <g id="Landing" sketch:type="MSArtboardGroup" transform="translate(-820.000000, -624.000000)" fill="#FFFFFF">
            <path d="M840,624 C828.933333,624 820,632.933333 820,644 C820,655.066667 828.933333,664 840,664 C851.066667,664 860,655.066667 860,644 C860,632.933333 851.066667,624 840,624 L840,624 Z M843.155556,655.111111 C843.155556,656.088889 842.311111,656.933333 841.333333,656.933333 L838.577778,656.933333 C837.6,656.933333 836.755556,656.088889 836.755556,655.111111 L836.755556,643.466667 C836.755556,642.444444 837.6,641.644444 838.577778,641.644444 L841.333333,641.644444 C842.311111,641.644444 843.155556,642.488889 843.155556,643.466667 L843.155556,655.111111 L843.155556,655.111111 Z M839.955556,638.622222 C837.911111,638.622222 836.222222,636.933333 836.222222,634.844444 C836.222222,632.755556 837.911111,631.066667 839.955556,631.066667 C842.044444,631.066667 843.733333,632.755556 843.733333,634.844444 C843.733333,636.933333 842.044444,638.622222 839.955556,638.622222 L839.955556,638.622222 Z" id="Imported-Layers" sketch:type="MSShapeGroup"></path>
        </g>
    </g>
</svg>