<?xml version="1.0" encoding="UTF-8" standalone="no"?>
<svg width="41px" height="60px" viewBox="0 0 41 60" version="1.1" xmlns="http://www.w3.org/2000/svg" xmlns:xlink="http://www.w3.org/1999/xlink" xmlns:sketch="http://www.bohemiancoding.com/sketch/ns">
    <!-- Generator: Sketch 3.3.3 (12081) - http://www.bohemiancoding.com/sketch -->
    <title>Imported Layers</title>
    <desc>Created with Sketch.</desc>
    <defs></defs>
    <g id="Page-1" stroke="none" stroke-width="1" fill="none" fill-rule="evenodd" sketch:type="MSPage">
        <g id="Iconos" sketch:type="MSArtboardGroup" transform="translate(-206.000000, -268.000000)" fill="#E6007E">
            <g id="Imported-Layers" sketch:type="MSLayerGroup" transform="translate(205.000000, 268.000000)">
                <path d="M32.4707586,2.45627586 C26.829931,0.427862069 21.8085517,1.992 17.1310345,7.35351724 C17.0006897,7.51365517 16.9026207,7.72965517 16.8616552,7.9382069 C16.7375172,8.53655172 17.0702069,9.14606897 17.6573793,9.35710345 L39.4994483,17.2088276 C39.6347586,17.2584828 39.7775172,17.282069 39.9190345,17.282069 C40.1002759,17.282069 40.2815172,17.2423448 40.4491034,17.1628966 C40.6948966,17.0462069 40.8935172,16.8537931 41.0201379,16.6166897 C41.1268966,16.4193103 41.1877241,16.1809655 41.1802759,15.9612414 C40.9903448,8.91268966 38.1401379,4.49462069 32.4707586,2.45627586" id="Fill-1" sketch:type="MSShapeGroup"></path>
                <path d="M21.8557241,28.3166897 L25.9224828,17.0015172 L13.824,17.0015172 L20.2096552,28.3166897 L21.8557241,28.3166897" id="Fill-2" sketch:type="MSShapeGroup"></path>
                <path d="M10.9725517,17.0015172 L7.66675862,17.0015172 C7.33406897,17.0015172 7.01627586,17.1343448 6.78289655,17.3702069 C6.54951724,17.606069 6.42041379,17.9263448 6.42537931,18.2590345 L6.55572414,28.3154483 L17.3582069,28.3154483 L10.9725517,17.0015172" id="Fill-3" sketch:type="MSShapeGroup"></path>
                <path d="M31.9009655,28.3166897 L32.030069,18.2602759 C32.0337931,17.9275862 31.9046897,17.6085517 31.6725517,17.3714483 C31.4404138,17.1343448 31.1213793,17.0027586 30.7886897,17.0027586 L28.5591724,17.0027586 L24.4924138,28.3166897 L31.9009655,28.3166897" id="Fill-4" sketch:type="MSShapeGroup"></path>
                <path d="M6.588,30.7994483 L6.89834483,54.7742069 C6.89834483,57.5424828 9.14896552,59.7931034 11.916,59.7931034 L26.5406897,59.7931034 C29.3077241,59.7931034 31.5583448,57.5424828 31.5583448,54.7915862 L31.8686897,30.7994483 L6.588,30.7994483 L6.588,30.7994483 Z M25.7673103,48.4555862 L23.7624828,53.472 C23.6395862,53.7786207 23.4012414,54.021931 23.0983448,54.1535172 C22.9431724,54.2205517 22.7755862,54.2528276 22.6092414,54.2528276 C22.4528276,54.2528276 22.2964138,54.2242759 22.1474483,54.1646897 L17.1310345,52.1561379 C16.4954483,51.9016552 16.1851034,51.1791724 16.4395862,50.5435862 L18.4431724,45.5271724 C18.566069,45.2217931 18.8044138,44.9772414 19.106069,44.8481379 C19.4089655,44.7177931 19.7515862,44.714069 20.0569655,44.8357241 L25.0746207,46.8430345 C25.7114483,47.0975172 26.0217931,47.82 25.7673103,48.4555862 L25.7673103,48.4555862 Z M20.6776552,34.3857931 L22.7569655,39.3736552 C22.8848276,39.6777931 22.8848276,40.0204138 22.7594483,40.3245517 C22.634069,40.6286897 22.3932414,40.8707586 22.0891034,40.9986207 L17.1,43.0791724 C16.9473103,43.1424828 16.7846897,43.1735172 16.622069,43.1735172 C16.4606897,43.1735172 16.3005517,43.1437241 16.1503448,43.0816552 C15.8449655,42.9550345 15.6028966,42.7142069 15.4762759,42.410069 L13.3969655,37.4222069 C13.1337931,36.7891034 13.4317241,36.0628966 14.0648276,35.7997241 L19.0526897,33.7191724 C19.6845517,33.4535172 20.4132414,33.7526897 20.6776552,34.3857931 L20.6776552,34.3857931 Z" id="Fill-5" sketch:type="MSShapeGroup"></path>
                <path d="M8.16951724,6.98234483 C7.87282759,6.45848276 7.2422069,6.22262069 6.67489655,6.42248276 L1.85462069,8.12068966 C1.20786207,8.34910345 0.868965517,9.05793103 1.09737931,9.70468966 C1.3257931,10.3514483 2.03586207,10.6915862 2.68013793,10.461931 L6.51848276,9.10882759 L10.9725517,17.0015172 L13.824,17.0015172 L8.16951724,6.98234483" id="Fill-6" sketch:type="MSShapeGroup"></path>
                <path d="M30.1655172,12.5362759 C30.3988966,11.8907586 30.0637241,11.1794483 29.4182069,10.9485517 C28.7726897,10.7151724 28.0601379,11.0515862 27.8304828,11.6971034 L25.9224828,17.0027586 L28.5604138,17.0027586 L30.1655172,12.5362759" id="Fill-7" sketch:type="MSShapeGroup"></path>
                <path d="M32.049931,4.8657931 C31.9108966,4.8657931 31.7681379,4.84096552 31.6291034,4.79131034 C30.9835862,4.55917241 30.6496552,3.84786207 30.8817931,3.20234483 L31.6651034,1.0262069 C31.8972414,0.381931034 32.6073103,0.048 33.2528276,0.278896552 C33.8983448,0.511034483 34.2322759,1.22234483 34.0001379,1.86786207 L33.2168276,4.044 C33.0355862,4.55172414 32.5588966,4.8657931 32.049931,4.8657931" id="Fill-8" sketch:type="MSShapeGroup"></path>
            </g>
        </g>
    </g>
</svg>