<?xml version="1.0" encoding="UTF-8" standalone="no"?>
<svg width="70px" height="69px" viewBox="0 0 70 69" version="1.1" xmlns="http://www.w3.org/2000/svg" xmlns:xlink="http://www.w3.org/1999/xlink" xmlns:sketch="http://www.bohemiancoding.com/sketch/ns">
    <!-- Generator: Sketch 3.3.3 (12081) - http://www.bohemiancoding.com/sketch -->
    <title>Imported Layers</title>
    <desc>Created with Sketch.</desc>
    <defs></defs>
    <g id="Page-1" stroke="none" stroke-width="1" fill="none" fill-rule="evenodd" sketch:type="MSPage">
        <g id="Iconos" sketch:type="MSArtboardGroup" transform="translate(-526.000000, -264.000000)" fill="#E6007E">
            <g id="Imported-Layers" sketch:type="MSLayerGroup" transform="translate(526.000000, 264.000000)">
                <path d="M54.8974836,15.2024225 L60.2953052,16.2910047 C61.044338,16.4419155 61.044338,17.5120939 60.2953052,17.6630047 L54.8974836,18.7515869 C54.6214272,18.8077183 54.4051831,19.0230423 54.3499718,19.2990986 L53.2613897,24.6969202 C53.1104789,25.4459531 52.0403005,25.4459531 51.8893897,24.6969202 L50.8008075,19.2990986 C50.7446761,19.0230423 50.5293521,18.8067981 50.2532958,18.7515869 L44.8554742,17.6630047 C44.1064413,17.5120939 44.1064413,16.4419155 44.8554742,16.2910047 L50.2532958,15.2024225 C50.5293521,15.1462911 50.7455962,14.9309671 50.8008075,14.6549108 L51.8893897,9.2570892 C52.0403005,8.50805634 53.1104789,8.50805634 53.2613897,9.2570892 L54.3499718,14.6549108 C54.4061033,14.9309671 54.6214272,15.1472113 54.8974836,15.2024225" id="Fill-1" sketch:type="MSShapeGroup"></path>
                <path d="M65.5118498,8.37094836 L69.1107042,9.09697653 C69.609446,9.197277 69.609446,9.91134272 69.1107042,10.0116432 L65.5118498,10.7376714 C65.3278122,10.7744789 65.1842629,10.9189484 65.1465352,11.1029859 L64.420507,14.7018404 C64.3202066,15.2005822 63.6061408,15.2005822 63.5058404,14.7018404 L62.7798122,11.1029859 C62.7430047,10.9189484 62.5985352,10.7753991 62.4144977,10.7376714 L58.8156432,10.0116432 C58.3169014,9.91134272 58.3169014,9.197277 58.8156432,9.09697653 L62.4144977,8.37094836 C62.5985352,8.33414085 62.7420845,8.18967136 62.7798122,8.0056338 L63.5058404,4.40677934 C63.6061408,3.90803756 64.3202066,3.90803756 64.420507,4.40677934 L65.1465352,8.0056338 C65.1842629,8.18967136 65.3278122,8.33414085 65.5118498,8.37094836" id="Fill-2" sketch:type="MSShapeGroup"></path>
                <path d="M13.0620657,53.0000563 L19.496939,54.2975211 C20.4935023,54.4981221 20.4935023,55.923493 19.496939,56.1240939 L13.0620657,57.4215587 C12.6939906,57.4960939 12.406892,57.7831925 12.333277,58.1503474 L11.0358122,64.5852207 C10.8352113,65.581784 9.40984038,65.581784 9.20923944,64.5852207 L7.91177465,58.1503474 C7.83723944,57.7822723 7.55014085,57.4951737 7.18298592,57.4215587 L0.748112676,56.1240939 C-0.248450704,55.923493 -0.248450704,54.4981221 0.748112676,54.2975211 L7.18298592,53.0000563 C7.55106103,52.9255211 7.83815962,52.6384225 7.91177465,52.2712676 L9.20923944,45.8363944 C9.40984038,44.839831 10.8352113,44.839831 11.0358122,45.8363944 L12.333277,52.2712676 C12.406892,52.6384225 12.6949108,52.9264413 13.0620657,53.0000563" id="Fill-3" sketch:type="MSShapeGroup"></path>
                <path d="M61.6525822,30.5944038 L61.6525822,30.3661972 L61.5624038,30.3661972 C60.2345728,27.0093521 58.2570892,23.9828545 55.8001878,21.4210516 L55.0658779,25.0622347 C55.0088263,25.3447324 54.9057653,25.6051455 54.7695775,25.8416338 C55.8553991,27.2393991 56.8087136,28.7466667 57.5669484,30.3671174 L50.5201502,30.3671174 C49.6588545,26.2732019 48.2785728,22.7037934 46.5026103,19.874216 L44.492,19.4684131 C43.2920751,19.2264038 42.453784,18.2022347 42.453784,16.978385 C42.453784,15.7545352 43.2920751,14.7303662 44.492,14.4883568 L44.8637559,14.4129014 C42.8816714,13.7292019 40.8038873,13.2525446 38.6478873,13.0372207 L38.6478873,2.76056338 C38.6478873,1.23581221 37.4120751,0 35.8873239,0 C34.3625728,0 33.1267606,1.23581221 33.1267606,2.76056338 L33.1267606,13.0206573 C19.1960376,14.4101408 8.28169014,26.1977465 8.28169014,40.4882629 C8.28169014,41.6044507 8.35622535,42.7031549 8.48505164,43.7852958 C8.94514554,43.4494272 9.50830047,43.2488263 10.1220657,43.2488263 C11.4581784,43.2488263 12.5752864,44.163493 12.8393803,45.4729202 L14.0181408,51.3151925 L15.0837183,51.5305164 L21.4560188,51.5305164 C22.4627042,55.8360751 24.0583099,59.5177465 26.0854836,62.3123568 C23.6801127,61.230216 21.4909859,59.7588357 19.5871174,57.9837934 L15.2962817,58.84877 C20.3554742,64.5171268 27.7105352,68.0938967 35.8873239,68.0938967 C51.1090704,68.0938967 63.4929577,55.7100094 63.4929577,40.4882629 C63.4929577,37.0025915 62.8368638,33.6687512 61.6525822,30.5944038 L61.6525822,30.5944038 Z M21.2554178,30.3661972 L14.2086197,30.3661972 C16.6333146,25.1827793 20.8606573,21.0152488 26.0854836,18.664169 C23.9166009,21.6556995 22.2436995,25.6658779 21.2554178,30.3661972 L21.2554178,30.3661972 Z M34.0469484,64.1306479 C30.2235681,62.9500469 27.0010704,58.1457465 25.2757183,51.5305164 L34.0469484,51.5305164 L34.0469484,64.1306479 L34.0469484,64.1306479 Z M34.0469484,47.8497653 L24.5046009,47.8497653 C24.1300845,45.5299718 23.9248826,43.0574272 23.9248826,40.4882629 C23.9248826,38.2558873 24.0813146,36.0971268 24.367493,34.0469484 L34.0469484,34.0469484 L34.0469484,47.8497653 L34.0469484,47.8497653 Z M37.7276995,64.1306479 L37.7276995,51.5305164 L46.4989296,51.5305164 C44.7735775,58.1457465 41.5510798,62.9500469 37.7276995,64.1306479 L37.7276995,64.1306479 Z M37.7276995,30.3661972 L37.7276995,16.8458779 C41.7259155,18.08077 45.0689577,23.2779906 46.7271362,30.3661972 L37.7276995,30.3661972 L37.7276995,30.3661972 Z M58.65277,47.8497653 L51.00877,47.8497653 C51.3483192,45.5216901 51.5305164,43.0574272 51.5305164,40.4882629 C51.5305164,38.2540469 51.3906479,36.1017277 51.1329953,34.0469484 L58.9279061,34.0469484 C59.5002629,36.0971268 59.8122066,38.2558873 59.8122066,40.4882629 C59.8122066,43.0574272 59.402723,45.5299718 58.65277,47.8497653 L58.65277,47.8497653 Z" id="Fill-4" sketch:type="MSShapeGroup"></path>
            </g>
        </g>
    </g>
</svg>