<?xml version="1.0" encoding="UTF-8" standalone="no"?>
<svg width="62px" height="60px" viewBox="0 0 62 60" version="1.1" xmlns="http://www.w3.org/2000/svg" xmlns:xlink="http://www.w3.org/1999/xlink" xmlns:sketch="http://www.bohemiancoding.com/sketch/ns">
    <!-- Generator: Sketch 3.3.3 (12081) - http://www.bohemiancoding.com/sketch -->
    <title>Imported Layers</title>
    <desc>Created with Sketch.</desc>
    <defs></defs>
    <g id="Page-1" stroke="none" stroke-width="1" fill="none" fill-rule="evenodd" sketch:type="MSPage">
        <g id="Iconos" sketch:type="MSArtboardGroup" transform="translate(-862.000000, -270.000000)" fill="#E6007E">
            <g id="Imported-Layers" sketch:type="MSLayerGroup" transform="translate(861.676471, 270.000000)">
                <path d="M26.5632353,0.817058824 L3.52235294,0.817058824 C1.82029412,0.817058824 0.437647059,2.19882353 0.437647059,3.90176471 L0.437647059,26.9391176 C0.437647059,28.6455882 1.82029412,30.0273529 3.52235294,30.0273529 L26.5632353,30.0273529 C28.2661765,30.0273529 29.6488235,28.6455882 29.6488235,26.9391176 L29.6488235,3.90176471 C29.6488235,2.19882353 28.2697059,0.817058824 26.5632353,0.817058824 L26.5632353,0.817058824 Z M7.54147059,10.7329412 C5.98676471,10.7329412 4.72852941,9.47117647 4.72852941,7.92088235 C4.72852941,6.36617647 5.98676471,5.10794118 7.54147059,5.10794118 C9.09617647,5.10794118 10.3535294,6.36617647 10.3535294,7.92088235 C10.3535294,9.47117647 9.09617647,10.7329412 7.54147059,10.7329412 L7.54147059,10.7329412 Z M15.045,18.2329412 C13.4902941,18.2329412 12.2285294,16.9747059 12.2285294,15.4208824 C12.2285294,13.8697059 13.4902941,12.6079412 15.045,12.6079412 C16.5997059,12.6079412 17.8570588,13.8697059 17.8570588,15.4208824 C17.8570588,16.9747059 16.5997059,18.2329412 15.045,18.2329412 L15.045,18.2329412 Z M22.5485294,25.7364706 C20.9938235,25.7364706 19.7320588,24.4782353 19.7320588,22.9235294 C19.7320588,21.3697059 20.9938235,20.1079412 22.5485294,20.1079412 C24.0997059,20.1079412 25.3605882,21.3697059 25.3605882,22.9235294 C25.3605882,24.4782353 24.0997059,25.7364706 22.5485294,25.7364706 L22.5485294,25.7364706 Z" id="Fill-1" sketch:type="MSShapeGroup"></path>
                <path d="M60.2205882,32.3885294 L38.6929412,24.1817647 C37.1002941,23.5755882 35.3179412,24.375 34.7117647,25.9676471 L26.505,47.4952941 C25.8988235,49.0879412 26.6982353,50.8658824 28.29,51.4764706 L49.8185294,59.6832353 C51.4111765,60.2894118 53.1891176,59.49 53.7997059,57.8973529 L62.0055882,36.3697059 C62.6126471,34.7770588 61.8132353,32.9955882 60.2205882,32.3885294 L60.2205882,32.3885294 Z M33.5055882,48.8744118 C32.0541176,48.3229412 31.3270588,46.6958824 31.8785294,45.2408824 C32.4335294,43.7902941 34.0605882,43.0632353 35.5111765,43.6147059 C36.9626471,44.1661765 37.6897059,45.7958824 37.1382353,47.2438235 C36.5832353,48.6979412 34.9561765,49.4258824 33.5055882,48.8744118 L33.5055882,48.8744118 Z M34.5494118,38.2341176 C35.1044118,36.7764706 36.7314706,36.0520588 38.1820588,36.6035294 C39.6335294,37.155 40.3605882,38.7820588 39.8091176,40.2370588 C39.2576471,41.6876471 37.6305882,42.4147059 36.1764706,41.8632353 C34.725,41.3117647 33.9979412,39.6855882 34.5494118,38.2341176 L34.5494118,38.2341176 Z M38.8473529,34.8564706 C37.3967647,34.3014706 36.6697059,32.6744118 37.2211765,31.2238235 C37.7752941,29.7723529 39.4023529,29.0417647 40.8502941,29.5967647 C42.3044118,30.1482353 43.035,31.7752941 42.4808824,33.2258824 C41.9294118,34.6808824 40.3023529,35.4079412 38.8473529,34.8564706 L38.8473529,34.8564706 Z M47.6576471,54.2682353 C46.2061765,53.7132353 45.4791176,52.0861765 46.0305882,50.6355882 C46.5820588,49.1841176 48.2126471,48.4535294 49.6597059,49.005 C51.1147059,49.56 51.8417647,51.1905882 51.2867647,52.6376471 C50.7352941,54.0926471 49.1082353,54.8232353 47.6576471,54.2682353 L47.6576471,54.2682353 Z M50.3285294,47.2605882 C48.8744118,46.7029412 48.1464706,45.0794118 48.7014706,43.6279412 C49.2529412,42.1738235 50.88,41.4432353 52.3314706,41.9982353 C53.7855882,42.5532353 54.5126471,44.1758824 53.9611765,45.6308824 C53.4061765,47.0814706 51.78,47.8120588 50.3285294,47.2605882 L50.3285294,47.2605882 Z M53.0029412,40.2467647 C51.5488235,39.6952941 50.8217647,38.0691176 51.3767647,36.6176471 C51.9282353,35.1635294 53.5544118,34.4355882 55.0058824,34.9905882 C56.4564706,35.5420588 57.1844118,37.1691176 56.6329412,38.6197059 C56.0779412,40.0747059 54.4508824,40.8017647 53.0029412,40.2467647 L53.0029412,40.2467647 Z" id="Fill-2" sketch:type="MSShapeGroup"></path>
            </g>
        </g>
    </g>
</svg>