<?xml version="1.0" encoding="UTF-8" standalone="no"?>
<svg width="51px" height="60px" viewBox="0 0 51 60" version="1.1" xmlns="http://www.w3.org/2000/svg" xmlns:xlink="http://www.w3.org/1999/xlink" xmlns:sketch="http://www.bohemiancoding.com/sketch/ns">
    <!-- Generator: Sketch 3.3.3 (12081) - http://www.bohemiancoding.com/sketch -->
    <title>Imported Layers</title>
    <desc>Created with Sketch.</desc>
    <defs></defs>
    <g id="Page-1" stroke="none" stroke-width="1" fill="none" fill-rule="evenodd" sketch:type="MSPage">
        <g id="Iconos" sketch:type="MSArtboardGroup" transform="translate(-366.000000, -269.000000)" fill="#E6007E">
            <path d="M416.72907,297.426744 C416.466047,293.670465 415.585581,290.829535 414.038837,288.739302 C412.222093,286.289767 408.24814,285.61093 404.469535,285.726047 L404.406047,284.666279 C406.531163,283.781628 408.03814,281.683023 408.03814,279.258605 C408.03814,276.025581 405.407209,273.395349 402.174186,273.395349 C401.147907,273.395349 400.155814,273.663256 399.285116,274.157907 C398.283256,271.771163 395.93907,270.141395 393.208372,270.141395 C391.316977,270.141395 389.567907,270.946512 388.345581,272.28186 C387.153953,270.305349 384.982791,269 382.558372,269 C379.827674,269 377.43814,270.619302 376.381163,273.022093 C375.602558,272.685814 374.762558,272.512093 373.892558,272.512093 C370.416047,272.512093 367.586977,275.340465 367.586977,278.816977 C367.586977,281.287442 368.983721,283.413953 371.047442,284.447907 L368.809302,321.645116 C366.299767,322.187907 366.186047,323.525349 366.186047,324.232791 C366.186047,326.10814 375.077907,328.303023 387.720465,328.303023 C400.361628,328.303023 409.252791,326.10814 409.252791,324.232791 C409.252791,323.525349 409.138372,322.187907 406.629535,321.645116 L406.049767,311.996279 C409.92186,311.63907 413.09907,309.82093 414.589302,307.082558 C415.833953,304.797674 416.990698,301.181628 416.72907,297.426744 L416.72907,297.426744 Z M402.23,282.754651 C402.204186,282.755349 402.178372,282.756047 402.153256,282.75814 L385.423721,282.75814 C384.771395,282.75814 384.24186,283.287674 384.24186,283.939302 L384.24186,290.160465 C384.24186,290.93907 383.608372,291.572558 382.829767,291.572558 C382.051163,291.572558 381.417674,290.93907 381.417674,290.160465 L381.417674,283.939302 C381.417674,283.286977 380.88814,282.75814 380.236512,282.75814 L379.72093,282.75814 C379.068605,282.75814 378.53907,283.287674 378.53907,283.939302 L378.53907,297.11 C378.53907,298.110465 377.725581,298.923953 376.725116,298.923953 C375.725349,298.923953 374.911163,298.109767 374.911163,297.11 L374.911163,283.93093 C374.911163,283.293256 374.403953,282.77 373.766279,282.750465 C372.367442,282.705814 371.176512,281.945349 370.513023,280.830465 C370.428605,280.69093 370.35186,280.548605 370.284884,280.399302 C370.256279,280.335116 370.233256,280.269535 370.208837,280.203953 C370.137674,280.016977 370.076977,279.825814 370.035116,279.625581 C370.02814,279.594884 370.025349,279.563488 370.019767,279.532093 C369.976512,279.299767 369.95,279.06186 369.95,278.816279 C369.95,276.643023 371.718605,274.875116 373.89186,274.875116 C374.786977,274.875116 375.631163,275.169535 376.335116,275.728372 C376.66093,275.987209 377.10186,276.055581 377.489767,275.906279 C377.880465,275.757674 378.162326,275.414419 378.232791,275.004186 C378.59907,272.895116 380.417209,271.364419 382.557674,271.364419 C384.746279,271.364419 386.616047,273.000465 386.907674,275.170233 C386.980233,275.713721 387.41907,276.136512 387.965349,276.18814 C388.51093,276.243256 389.022326,275.909767 389.19814,275.389302 C389.779302,273.663953 391.39093,272.505814 393.208372,272.505814 C395.41093,272.505814 397.222093,274.158605 397.42093,276.350698 C397.464186,276.825116 397.788605,277.227674 398.242791,277.370698 C398.696279,277.515814 399.193721,277.369302 399.501395,277.006512 C400.169767,276.213953 401.143721,275.760465 402.174186,275.760465 C404.105349,275.760465 405.675814,277.330233 405.675814,279.260698 C405.675814,279.471395 405.65,279.677209 405.613023,279.877442 C405.605349,279.921395 405.598372,279.964651 405.589302,280.007907 C405.547442,280.19 405.493023,280.367907 405.425349,280.53814 C405.402326,280.595349 405.375116,280.649767 405.35,280.706279 C405.291395,280.830465 405.227209,280.950465 405.155349,281.066279 C405.098837,281.158372 405.037442,281.246279 404.973256,281.332791 C404.90907,281.417209 404.843488,281.498837 404.773023,281.577674 C404.706744,281.65093 404.641163,281.722093 404.569302,281.790465 C404.467442,281.885349 404.362093,281.976047 404.249767,282.058372 C403.679767,282.479767 402.985581,282.743488 402.23,282.754651 L402.23,282.754651 Z M409.826279,304.486512 C408.857209,305.490465 407.893721,306.324186 405.723953,306.56907 L404.795349,291.153256 C406.905116,291.13093 408.596977,291.673721 409.308605,292.356047 C410.735349,293.731163 411.13093,295.149535 411.315814,297.802791 C411.5,300.459535 410.876977,303.39814 409.826279,304.486512 L409.826279,304.486512 Z" id="Imported-Layers" sketch:type="MSShapeGroup"></path>
        </g>
    </g>
</svg>