<?xml version="1.0" encoding="UTF-8" standalone="no"?>
<svg width="70px" height="40px" viewBox="0 0 70 40" version="1.1" xmlns="http://www.w3.org/2000/svg" xmlns:xlink="http://www.w3.org/1999/xlink" xmlns:sketch="http://www.bohemiancoding.com/sketch/ns">
    <!-- Generator: Sketch 3.3.3 (12081) - http://www.bohemiancoding.com/sketch -->
    <title>Imported Layers</title>
    <desc>Created with Sketch.</desc>
    <defs></defs>
    <g id="Page-1" stroke="none" stroke-width="1" fill="none" fill-rule="evenodd" sketch:type="MSPage">
        <g id="Impacto" sketch:type="MSArtboardGroup" transform="translate(-857.000000, -300.000000)" fill="#E6007E">
            <g id="Imported-Layers" sketch:type="MSLayerGroup" transform="translate(857.000000, 300.501774)">
                <path d="M63.7179487,19.9123077 C63.7179487,16.7066667 66.1194872,14.0619231 69.2210256,13.6778205 C69.6670513,13.6221795 70,13.2434615 70,12.7938462 L70,2.69230769 C70,1.20525641 68.7947436,0 67.3076923,0 L2.69230769,0 C1.20525641,0 0,1.20525641 0,2.69230769 L0,12.4573077 C0,12.9060256 0.332948718,13.285641 0.778974359,13.3412821 C3.88051282,13.7244872 6.28205128,16.3692308 6.28205128,19.5748718 C6.28205128,22.7805128 3.88051282,25.4252564 0.778974359,25.809359 C0.332948718,25.865 0,26.2437179 0,26.6933333 L0,36.7948718 C0,38.2819231 1.20525641,39.4871795 2.69230769,39.4871795 L67.3076923,39.4871795 C68.7947436,39.4871795 70,38.2819231 70,36.7948718 L70,27.0298718 C70,26.5811538 69.6670513,26.2015385 69.2210256,26.1458974 C66.1194872,25.7626923 63.7179487,23.1179487 63.7179487,19.9123077 L63.7179487,19.9123077 Z M58.3333333,29.6342308 C58.3333333,31.6032051 56.7314103,33.2051282 54.7624359,33.2051282 L15.2375641,33.2051282 C13.2685897,33.2051282 11.6666667,31.6032051 11.6666667,29.6342308 L11.6666667,9.85294872 C11.6666667,7.88397436 13.2685897,6.28205128 15.2375641,6.28205128 L54.7624359,6.28205128 C56.7314103,6.28205128 58.3333333,7.88397436 58.3333333,9.85294872 L58.3333333,29.6342308 L58.3333333,29.6342308 Z" id="Fill-1" sketch:type="MSShapeGroup"></path>
                <path d="M54.7624359,8.97435897 L15.2375641,8.97435897 C14.7520513,8.97435897 14.3589744,9.3674359 14.3589744,9.85294872 L14.3589744,29.6342308 C14.3589744,30.1197436 14.7520513,30.5128205 15.2375641,30.5128205 L54.7624359,30.5128205 C55.2479487,30.5128205 55.6410256,30.1197436 55.6410256,29.6342308 L55.6410256,9.85294872 C55.6410256,9.3674359 55.2479487,8.97435897 54.7624359,8.97435897 L54.7624359,8.97435897 Z M43.315641,18.4808974 L39.2987179,21.6784615 C39.1560256,21.8175641 39.0905128,22.0176923 39.1246154,22.2142308 L40.5237179,27.0729487 C40.6008974,27.5207692 40.2446154,27.8851282 39.8407692,27.8851282 C39.7339744,27.8851282 39.6244872,27.86 39.5176923,27.804359 L35.2817949,25.0061538 C35.1938462,24.9594872 35.0969231,24.9361538 35,24.9361538 C34.9030769,24.9361538 34.8061538,24.9594872 34.7182051,25.0061538 L30.4823077,27.804359 C30.3764103,27.86 30.2660256,27.8851282 30.1592308,27.8851282 C29.7553846,27.8851282 29.3991026,27.5207692 29.4762821,27.0729487 L30.8753846,22.2142308 C30.9094872,22.0176923 30.8439744,21.8175641 30.7012821,21.6784615 L26.684359,18.4808974 C26.2733333,18.0797436 26.4994872,17.380641 27.0684615,17.2980769 L32.1685897,17.1607692 C32.3660256,17.1320513 32.5365385,17.0082051 32.6244872,16.8296154 L34.3780769,11.9870513 C34.5055128,11.7294872 34.7523077,11.6002564 35,11.6002564 C35.2476923,11.6002564 35.4944872,11.7294872 35.6219231,11.9870513 L37.3755128,16.8296154 C37.4634615,17.0082051 37.6339744,17.1320513 37.8314103,17.1607692 L42.9315385,17.2980769 C43.4996154,17.380641 43.7266667,18.0797436 43.315641,18.4808974 L43.315641,18.4808974 Z" id="Fill-2" sketch:type="MSShapeGroup"></path>
            </g>
        </g>
    </g>
</svg>