<?xml version="1.0" encoding="UTF-8" standalone="no"?>
<svg width="25px" height="25px" viewBox="0 0 25 25" version="1.1" xmlns="http://www.w3.org/2000/svg" xmlns:xlink="http://www.w3.org/1999/xlink" xmlns:sketch="http://www.bohemiancoding.com/sketch/ns">
    <!-- Generator: Sketch 3.4.2 (15857) - http://www.bohemiancoding.com/sketch -->
    <title>Group</title>
    <desc>Created with Sketch.</desc>
    <defs></defs>
    <g id="Page-1" stroke="none" stroke-width="1" fill="none" fill-rule="evenodd" sketch:type="MSPage">
        <g id="Salidas" sketch:type="MSArtboardGroup" transform="translate(-167.000000, -165.000000)" fill="#E6007E">
            <g id="Group" sketch:type="MSLayerGroup" transform="translate(167.000000, 165.000000)">
                <rect id="Rectangle-path" sketch:type="MSShapeGroup" x="4.6875" y="0" width="3.125" height="3.125"></rect>
                <rect id="Rectangle-path" sketch:type="MSShapeGroup" x="17.1875" y="0" width="3.125" height="3.125"></rect>
                <path d="M23.4375,1.5625 L21.875,1.5625 L21.875,3.125 C21.875,3.98828125 21.1757812,4.6875 20.3125,4.6875 L17.1875,4.6875 C16.3242188,4.6875 15.625,3.98828125 15.625,3.125 L15.625,1.5625 L9.375,1.5625 L9.375,3.125 C9.375,3.98828125 8.67578125,4.6875 7.8125,4.6875 L4.6875,4.6875 C3.82421875,4.6875 3.125,3.98828125 3.125,3.125 L3.125,1.5625 L1.5625,1.5625 C0.69921875,1.5625 0,2.26171875 0,3.125 L0,23.4375 C0,24.3007812 0.69921875,25 1.5625,25 L23.4375,25 C24.3007812,25 25,24.3007812 25,23.4375 L25,3.125 C25,2.26171875 24.3007812,1.5625 23.4375,1.5625 L23.4375,1.5625 Z M10.9375,18.75 L6.25,14.0625 L8.59375,11.71875 L10.9375,14.0625 L16.40625,8.59375 L18.75,10.9375 L10.9375,18.75 L10.9375,18.75 Z" id="Shape" sketch:type="MSShapeGroup"></path>
            </g>
        </g>
    </g>
</svg>