<?xml version="1.0" encoding="UTF-8" standalone="no"?>
<svg width="40px" height="40px" viewBox="0 0 40 40" version="1.1" xmlns="http://www.w3.org/2000/svg" xmlns:xlink="http://www.w3.org/1999/xlink" xmlns:sketch="http://www.bohemiancoding.com/sketch/ns">
    <!-- Generator: Sketch 3.4.3 (16044) - http://www.bohemiancoding.com/sketch -->
    <title>Fill 1 + Fill 2 + Fill 3</title>
    <desc>Created with Sketch.</desc>
    <defs></defs>
    <g id="Page-1" stroke="none" stroke-width="1" fill="none" fill-rule="evenodd" sketch:type="MSPage">
        <g id="Landing" sketch:type="MSArtboardGroup" transform="translate(-820.000000, -405.000000)" fill="#FFFFFF">
            <g id="Fill-1-+-Fill-2-+-Fill-3" sketch:type="MSLayerGroup" transform="translate(820.000000, 405.000000)">
                <path d="M7.5,0 L12.5,0 L12.5,5 L7.5,5 L7.5,0 Z" id="Fill-1" sketch:type="MSShapeGroup"></path>
                <path d="M27.5,0 L32.5,0 L32.5,5 L27.5,5 L27.5,0 Z" id="Fill-2" sketch:type="MSShapeGroup"></path>
                <path d="M37.5,2.5 L35,2.5 L35,5 C35,6.38125 33.88125,7.5 32.5,7.5 L27.5,7.5 C26.11875,7.5 25,6.38125 25,5 L25,2.5 L15,2.5 L15,5 C15,6.38125 13.88125,7.5 12.5,7.5 L7.5,7.5 C6.11875,7.5 5,6.38125 5,5 L5,2.5 L2.5,2.5 C1.11875,2.5 0,3.61875 0,5 L0,37.5 C0,38.88125 1.11875,40 2.5,40 L37.5,40 C38.88125,40 40,38.88125 40,37.5 L40,5 C40,3.61875 38.88125,2.5 37.5,2.5 L37.5,2.5 Z M17.5,30 L10,22.5 L13.75,18.75 L17.5,22.5 L26.25,13.75 L30,17.5 L17.5,30 L17.5,30 Z" id="Fill-3" sketch:type="MSShapeGroup"></path>
            </g>
        </g>
    </g>
</svg>