<?xml version="1.0" encoding="UTF-8" standalone="no"?>
<svg width="71px" height="45px" viewBox="0 0 71 45" version="1.1" xmlns="http://www.w3.org/2000/svg" xmlns:xlink="http://www.w3.org/1999/xlink" xmlns:sketch="http://www.bohemiancoding.com/sketch/ns">
    <!-- Generator: Sketch 3.3.3 (12081) - http://www.bohemiancoding.com/sketch -->
    <title>Imported Layers</title>
    <desc>Created with Sketch.</desc>
    <defs></defs>
    <g id="Page-1" stroke="none" stroke-width="1" fill="none" fill-rule="evenodd" sketch:type="MSPage">
        <g id="Impacto" sketch:type="MSArtboardGroup" transform="translate(-696.000000, -296.000000)" fill="#E6007E">
            <path d="M766.607578,298.971462 C766.607578,297.607191 765.501432,296.501774 764.137161,296.501774 L699.077994,296.501774 C697.713724,296.501774 696.607578,297.607191 696.607578,298.971462 L696.607578,338.511983 C696.607578,339.874795 697.713724,340.980941 699.077994,340.980941 L764.13789,340.980941 C765.501432,340.980941 766.607578,339.874795 766.607578,338.511253 L766.607578,298.971462 L766.607578,298.971462 Z M722.128411,327.126774 L702.440911,327.126774 C701.788307,324.544795 703.454453,323.120733 706.154557,322.498024 C708.797786,321.889899 710.65789,320.689691 709.003411,319.034483 C704.166119,314.196462 707.782057,308.30917 712.264974,308.30917 C716.74789,308.30917 720.403203,314.197191 715.565911,319.034483 C713.911432,320.689691 715.73289,321.889899 718.374661,322.498024 C721.075494,323.120733 722.781744,324.544795 722.128411,327.126774 L722.128411,327.126774 Z M726.503411,324.210108 L760.774244,324.210108 L760.774244,327.126774 L726.503411,327.126774 L726.503411,324.210108 Z M726.503411,316.918441 L760.774244,316.918441 L760.774244,319.835108 L726.503411,319.835108 L726.503411,316.918441 Z M726.503411,309.626774 L760.774244,309.626774 L760.774244,312.543441 L726.503411,312.543441 L726.503411,309.626774 Z" id="Imported-Layers" sketch:type="MSShapeGroup"></path>
        </g>
    </g>
</svg>