<?xml version="1.0" encoding="UTF-8" standalone="no"?>
<svg width="70px" height="60px" viewBox="0 0 70 60" version="1.1" xmlns="http://www.w3.org/2000/svg" xmlns:xlink="http://www.w3.org/1999/xlink" xmlns:sketch="http://www.bohemiancoding.com/sketch/ns">
    <!-- Generator: Sketch 3.3.3 (12081) - http://www.bohemiancoding.com/sketch -->
    <title>Imported Layers</title>
    <desc>Created with Sketch.</desc>
    <defs></defs>
    <g id="Page-1" stroke="none" stroke-width="1" fill="none" fill-rule="evenodd" sketch:type="MSPage">
        <g id="Uso-de-suelo" sketch:type="MSArtboardGroup" transform="translate(-605.000000, -288.000000)" fill="#E6007E">
            <path d="M640.681682,318.919279 L640.681682,309.965326 L645.618426,309.965326 C646.4061,309.178349 645.861914,308.00207 645.07424,307.214396 L626.540519,288.679977 C625.753542,287.893698 624.475403,287.893698 623.689821,288.679977 L606.044938,306.322768 C605.256566,307.109744 604.713077,308.488349 605.500752,309.276721 L610.437496,309.276721 L610.437496,345.467884 C610.437496,346.579977 611.339589,347.483465 612.453077,347.483465 L656.760286,347.483465 C656.754705,347.44021 656.736566,338.45207 656.736566,338.45207 C656.736566,337.89393 657.186566,337.443233 657.744007,337.443233 L661.121449,337.443233 C661.680286,337.443233 662.129589,337.89393 662.129589,338.45207 L662.129589,347.357186 C662.129589,347.40114 672.867496,347.483465 672.867496,347.483465 C673.980286,347.483465 674.883775,346.579279 674.883775,345.467186 L674.883775,320.935558 C674.881682,319.821372 673.978891,318.919279 672.864705,318.919279 L640.681682,318.919279 Z M620.25238,336.436489 C620.25238,336.994628 619.801682,337.445326 619.243542,337.445326 L615.778891,337.445326 C615.222147,337.445326 614.770752,336.994628 614.770752,336.436489 L614.770752,332.971837 C614.770752,332.413698 615.221449,331.964396 615.778891,331.964396 L619.243542,331.964396 C619.801682,331.964396 620.25238,332.414396 620.25238,332.971837 L620.25238,336.436489 L620.25238,336.436489 Z M620.25238,326.353698 C620.25238,326.91114 619.801682,327.36114 619.243542,327.36114 L615.778891,327.36114 C615.222147,327.36114 614.770752,326.910442 614.770752,326.353698 L614.770752,322.888349 C614.770752,322.329512 615.221449,321.88021 615.778891,321.88021 L619.243542,321.88021 C619.801682,321.88021 620.25238,322.33021 620.25238,322.888349 L620.25238,326.353698 L620.25238,326.353698 Z M636.886333,336.436489 C636.886333,336.994628 636.435635,337.445326 635.878193,337.445326 L632.412845,337.445326 C631.855403,337.445326 631.404705,336.994628 631.404705,336.436489 L631.404705,332.971837 C631.404705,332.413698 631.855403,331.964396 632.412845,331.964396 L635.878193,331.964396 C636.434938,331.964396 636.886333,332.414396 636.886333,332.971837 L636.886333,336.436489 L636.886333,336.436489 Z M636.886333,326.353698 C636.886333,326.91114 636.435635,327.36114 635.878193,327.36114 L632.412845,327.36114 C631.855403,327.36114 631.404705,326.910442 631.404705,326.353698 L631.404705,322.888349 C631.404705,322.329512 631.855403,321.88021 632.412845,321.88021 L635.878193,321.88021 C636.434938,321.88021 636.886333,322.33021 636.886333,322.888349 L636.886333,326.353698 L636.886333,326.353698 Z M653.520984,336.436489 C653.520984,336.994628 653.070984,337.445326 652.512147,337.445326 L649.048193,337.445326 C648.489356,337.445326 648.040054,336.994628 648.040054,336.436489 L648.040054,332.971837 C648.040054,332.413698 648.490054,331.964396 649.048193,331.964396 L652.512147,331.964396 C653.071682,331.964396 653.520984,332.414396 653.520984,332.971837 L653.520984,336.436489 L653.520984,336.436489 Z M653.520984,326.353698 C653.520984,326.91114 653.070984,327.36114 652.512147,327.36114 L649.048193,327.36114 C648.489356,327.36114 648.040054,326.910442 648.040054,326.353698 L648.040054,322.888349 C648.040054,322.329512 648.490054,321.88021 649.048193,321.88021 L652.512147,321.88021 C653.071682,321.88021 653.520984,322.33021 653.520984,322.888349 L653.520984,326.353698 L653.520984,326.353698 Z M670.155635,336.436489 C670.155635,336.994628 669.704938,337.445326 669.148891,337.445326 L665.682147,337.445326 C665.124705,337.445326 664.674705,336.994628 664.674705,336.436489 L664.674705,332.971837 C664.674705,332.413698 665.125403,331.964396 665.682147,331.964396 L669.148891,331.964396 C669.704938,331.964396 670.155635,332.414396 670.155635,332.971837 L670.155635,336.436489 L670.155635,336.436489 Z M670.155635,326.353698 C670.155635,326.91114 669.704938,327.36114 669.148891,327.36114 L665.682147,327.36114 C665.124705,327.36114 664.674705,326.910442 664.674705,326.353698 L664.674705,322.888349 C664.674705,322.329512 665.125403,321.88021 665.682147,321.88021 L669.148891,321.88021 C669.704938,321.88021 670.155635,322.33021 670.155635,322.888349 L670.155635,326.353698 L670.155635,326.353698 Z" id="Imported-Layers" sketch:type="MSShapeGroup"></path>
        </g>
    </g>
</svg>