<?xml version="1.0" encoding="UTF-8" standalone="no"?>
<svg width="60px" height="60px" viewBox="0 0 60 60" version="1.1" xmlns="http://www.w3.org/2000/svg" xmlns:xlink="http://www.w3.org/1999/xlink" xmlns:sketch="http://www.bohemiancoding.com/sketch/ns">
    <!-- Generator: Sketch 3.3.3 (12081) - http://www.bohemiancoding.com/sketch -->
    <title>noun_140031_cc</title>
    <desc>Created with Sketch.</desc>
    <defs></defs>
    <g id="Page-1" stroke="none" stroke-width="1" fill="none" fill-rule="evenodd" sketch:type="MSPage">
        <g id="Uso-de-suelo" sketch:type="MSArtboardGroup" transform="translate(-497.000000, -961.000000)" fill="#E6007E">
            <g id="noun_140031_cc" sketch:type="MSLayerGroup" transform="translate(497.000000, 961.000000)">
                <g id="Group" sketch:type="MSShapeGroup">
                    <path d="M5.30174493,0 C2.37825503,0 0,2.37865772 0,5.30214767 L0,9.39583893 L10.6038926,9.39583893 L10.6038926,5.30214767 C10.6038926,2.37865772 8.22523487,0 5.30174493,0 L5.30174493,0 L5.30174493,0 Z M50.827651,48.1880537 L50.827651,6.98899327 C50.827651,3.12926175 47.6987919,0 43.8390604,0 L10.8958389,0 C12.2085906,1.38442953 13.02,3.24845637 13.02,5.30214767 L13.02,54.2335571 C13.02,57.0853691 15.2069799,59.5425503 18.0551678,59.6830873 C21.0994631,59.8328859 23.6238926,57.3994631 23.6238926,54.3873825 L23.6238926,48.1912752 L50.8280537,48.1912752 C50.8280537,48.1900671 50.827651,48.1892617 50.827651,48.1880537 L50.827651,48.1880537 L50.827651,48.1880537 Z M22.9651007,39.3289933 L41.610604,39.3289933 L41.610604,42.5504698 L22.9651007,42.5504698 L22.9651007,39.3289933 L22.9651007,39.3289933 Z M22.9651007,31.409396 L41.610604,31.409396 L41.610604,34.6308725 L22.9651007,34.6308725 L22.9651007,31.409396 L22.9651007,31.409396 Z M22.9651007,23.4897987 L41.610604,23.4897987 L41.610604,26.7112752 L22.9651007,26.7112752 L22.9651007,23.4897987 L22.9651007,23.4897987 Z M22.9651007,15.570604 L41.610604,15.570604 L41.610604,18.7920805 L22.9651007,18.7920805 L22.9651007,15.570604 L22.9651007,15.570604 Z M22.9651007,7.65100673 L41.610604,7.65100673 L41.610604,10.8724832 L22.9651007,10.8724832 L22.9651007,7.65100673 L22.9651007,7.65100673 Z M26.04,50.6073825 L26.04,54.3873825 C26.04,56.4410738 25.2285906,58.3051007 23.9158389,59.6895302 L54.1159731,59.6895302 C57.0394631,59.6895302 59.4177181,57.3112752 59.4177181,54.3873825 L59.4177181,50.6073825 L26.04,50.6073825 L26.04,50.6073825 Z" id="Shape"></path>
                </g>
            </g>
        </g>
    </g>
</svg>