<?xml version="1.0" encoding="UTF-8" standalone="no"?>
<svg width="32px" height="42px" viewBox="0 0 32 42" version="1.1" xmlns="http://www.w3.org/2000/svg" xmlns:xlink="http://www.w3.org/1999/xlink" xmlns:sketch="http://www.bohemiancoding.com/sketch/ns">
    <!-- Generator: Sketch 3.4.4 (17249) - http://www.bohemiancoding.com/sketch -->
    <title>Fill 1</title>
    <desc>Created with Sketch.</desc>
    <defs></defs>
    <g id="Page-1" stroke="none" stroke-width="1" fill="none" fill-rule="evenodd" sketch:type="MSPage">
        <g id="Landing-Sandy" sketch:type="MSArtboardGroup" transform="translate(-625.000000, -321.000000)" fill="#FFFFFF">
            <path d="M648.723379,330.103448 L637.316138,330.103448 C636.581034,330.103448 635.985172,329.493724 635.985172,328.758621 C635.985172,328.023517 636.581034,327.413793 637.316138,327.413793 L648.723379,327.413793 C649.458276,327.413793 650.054138,328.023517 650.054138,328.758621 C650.054138,329.493724 649.458276,330.103448 648.723379,330.103448 L648.723379,330.103448 Z M648.723379,336.724138 L637.316138,336.724138 C636.581034,336.724138 635.985172,336.114414 635.985172,335.37931 C635.985172,334.644207 636.581034,334.034483 637.316138,334.034483 L648.723379,334.034483 C649.458276,334.034483 650.054138,334.644207 650.054138,335.37931 C650.054138,336.114414 649.458276,336.724138 648.723379,336.724138 L648.723379,336.724138 Z M648.723379,343.344828 L637.316138,343.344828 C636.581034,343.344828 635.985172,342.734897 635.985172,342 C635.985172,341.265103 636.581034,340.655172 637.316138,340.655172 L648.723379,340.655172 C649.458276,340.655172 650.054138,341.265103 650.054138,342 C650.054138,342.734897 649.458276,343.344828 648.723379,343.344828 L648.723379,343.344828 Z M648.723379,349.965517 L637.316138,349.965517 C636.581034,349.965517 635.985172,349.355586 635.985172,348.62069 C635.985172,347.885586 636.581034,347.275862 637.316138,347.275862 L648.723379,347.275862 C649.458276,347.275862 650.054138,347.885586 650.054138,348.62069 C650.054138,349.355586 649.458276,349.965517 648.723379,349.965517 L648.723379,349.965517 Z M650.034483,355.462138 C650.034483,356.197241 649.438828,356.793103 648.703724,356.793103 L637.296483,356.793103 C636.561379,356.793103 635.965517,356.197241 635.965517,355.462138 L635.965517,355.434414 C635.965517,354.69931 636.561379,354.103448 637.296483,354.103448 L648.703724,354.103448 C649.438828,354.103448 650.034483,354.69931 650.034483,355.434414 L650.034483,355.462138 Z M632.965517,330.038897 C632.258552,330.038897 631.685448,329.465586 631.685448,328.758621 C631.685448,328.051655 632.258552,327.478345 632.965517,327.478345 C633.67269,327.478345 634.245793,328.051655 634.245793,328.758621 C634.245793,329.465586 633.67269,330.038897 632.965517,330.038897 L632.965517,330.038897 Z M632.965517,336.659379 C632.258552,336.659379 631.685448,336.086276 631.685448,335.37931 C631.685448,334.672345 632.258552,334.099034 632.965517,334.099034 C633.67269,334.099034 634.245793,334.672345 634.245793,335.37931 C634.245793,336.086276 633.67269,336.659379 632.965517,336.659379 L632.965517,336.659379 Z M632.965517,343.280276 C632.258552,343.280276 631.685448,342.706966 631.685448,342 C631.685448,341.293034 632.258552,340.719931 632.965517,340.719931 C633.67269,340.719931 634.245793,341.293034 634.245793,342 C634.245793,342.706966 633.67269,343.280276 632.965517,343.280276 L632.965517,343.280276 Z M632.965517,349.900966 C632.258552,349.900966 631.685448,349.327655 631.685448,348.62069 C631.685448,347.913724 632.258552,347.340621 632.965517,347.340621 C633.67269,347.340621 634.245793,347.913724 634.245793,348.62069 C634.245793,349.327655 633.67269,349.900966 632.965517,349.900966 L632.965517,349.900966 Z M632.965517,356.521655 C632.258552,356.521655 631.685448,355.948345 631.685448,355.241379 C631.685448,354.534414 632.258552,353.96131 632.965517,353.96131 C633.67269,353.96131 634.245793,354.534414 634.245793,355.241379 C634.245793,355.948345 633.67269,356.521655 632.965517,356.521655 L632.965517,356.521655 Z M656.655172,324.189724 C656.655172,322.428 655.227172,321 653.465448,321 L628.189724,321 C626.428207,321 625,322.428 625,324.189724 L625,359.810276 C625,361.572 626.428207,363 628.189724,363 L653.465448,363 C655.227172,363 656.655172,361.572 656.655172,359.810276 L656.655172,324.189724 Z" id="Fill-1" sketch:type="MSShapeGroup"></path>
        </g>
    </g>
</svg>