<?xml version="1.0" encoding="UTF-8" standalone="no"?>
<svg width="54px" height="54px" viewBox="0 0 54 54" version="1.1" xmlns="http://www.w3.org/2000/svg" xmlns:xlink="http://www.w3.org/1999/xlink" xmlns:sketch="http://www.bohemiancoding.com/sketch/ns">
    <!-- Generator: Sketch 3.3.3 (12081) - http://www.bohemiancoding.com/sketch -->
    <title>Imported Layers</title>
    <desc>Created with Sketch.</desc>
    <defs></defs>
    <g id="Page-1" stroke="none" stroke-width="1" fill="none" fill-rule="evenodd" sketch:type="MSPage">
        <g id="Iconos" sketch:type="MSArtboardGroup" transform="translate(-706.000000, -272.000000)" fill="#E6007E">
            <path d="M719.256997,290.306 C729.833997,292.459 736.498997,285.511 736.498997,285.511 L732.791997,272.948 C725.562997,283.577 712.251997,277.101 712.251997,277.101 L721.051997,306.929 C718.831997,305.741 716.171997,305.399 713.578997,306.189 C708.326997,307.79 705.345997,313.414 706.920997,318.751 C708.495997,324.089 714.029997,327.118 719.281997,325.517 C724.533997,323.917 727.514997,318.292 725.939997,312.955 L719.256997,290.306 L719.256997,290.306 Z M759.416997,281.104 L758.534997,272 C752.157997,278.324 743.868997,272.115 743.868997,272.115 L745.961997,293.729 C744.593997,292.62 742.810997,292.031 740.923997,292.228 C737.101997,292.626 734.307997,296.085 734.681997,299.953 C735.056997,303.821 738.457997,306.634 742.279997,306.234 C746.101997,305.836 748.895997,302.378 748.521997,298.509 L746.930997,282.078 C753.911997,284.96 759.416997,281.104 759.416997,281.104 L759.416997,281.104 Z" id="Imported-Layers" sketch:type="MSShapeGroup"></path>
        </g>
    </g>
</svg>