<?xml version="1.0" encoding="UTF-8" standalone="no"?>
<svg width="54px" height="60px" viewBox="0 0 54 60" version="1.1" xmlns="http://www.w3.org/2000/svg" xmlns:xlink="http://www.w3.org/1999/xlink" xmlns:sketch="http://www.bohemiancoding.com/sketch/ns">
    <!-- Generator: Sketch 3.4 (15588) - http://www.bohemiancoding.com/sketch -->
    <title>Imported Layers</title>
    <desc>Created with Sketch.</desc>
    <defs></defs>
    <g id="Page-1" stroke="none" stroke-width="1" fill="none" fill-rule="evenodd" sketch:type="MSPage">
        <g id="Uso-de-suelo" sketch:type="MSArtboardGroup" transform="translate(-297.000000, -290.000000)" fill="#E6007E">
            <path d="M329.834684,344.356566 L329.834684,329.408211 L345.932152,329.408211 L338.529367,319.958591 L344.398734,319.958591 L337.159241,310.717072 L343.18962,310.717072 L327.196962,290.303401 L311.204304,310.717072 L317.234684,310.717072 L309.99519,319.958591 L315.863797,319.958591 L308.461013,329.408211 L324.56,329.408211 L324.56,344.356566 L312.741519,344.356566 L312.741519,339.315806 L319.928608,339.315806 L319.928608,334.041123 L300.278987,334.041123 L300.278987,339.315806 L307.466076,339.315806 L307.466076,344.356566 L297.537975,344.356566 L297.537975,349.631249 L350.799747,349.631249 L350.799747,344.356566 L329.834684,344.356566" id="Imported-Layers" sketch:type="MSShapeGroup"></path>
        </g>
    </g>
</svg>