<?xml version="1.0" encoding="UTF-8" standalone="no"?>
<svg width="60px" height="60px" viewBox="0 0 60 60" version="1.1" xmlns="http://www.w3.org/2000/svg" xmlns:xlink="http://www.w3.org/1999/xlink" xmlns:sketch="http://www.bohemiancoding.com/sketch/ns">
    <!-- Generator: Sketch 3.4 (15588) - http://www.bohemiancoding.com/sketch -->
    <title>Page 1</title>
    <desc>Created with Sketch.</desc>
    <defs></defs>
    <g id="Page-1" stroke="none" stroke-width="1" fill="none" fill-rule="evenodd" sketch:type="MSPage">
        <g id="Uso-de-suelo" sketch:type="MSArtboardGroup" transform="translate(-512.000000, -963.000000)" fill="#E6007E">
            <g id="Page-1" sketch:type="MSLayerGroup" transform="translate(512.000000, 963.000000)">
                <g id="Group-3" sketch:type="MSShapeGroup">
                    <g id="Group">
                        <path d="M5.30173333,0.310333333 C2.3784,0.310333333 -0.000266666667,2.689 -0.000266666667,5.61233333 L-0.000266666667,9.70633333 L10.6037333,9.70633333 L10.6037333,5.61233333 C10.6037333,2.689 8.22506667,0.310333333 5.30173333,0.310333333" id="Fill-1"></path>
                        <path d="M26.04,50.9177333 L26.04,54.6977333 C26.04,56.7517333 25.2286667,58.6157333 23.916,59.9997333 L54.116,59.9997333 C57.0393333,59.9997333 59.418,57.6217333 59.418,54.6977333 L59.418,50.9177333 L26.04,50.9177333 Z" id="Fill-4"></path>
                        <path d="M41.6106667,34.9413333 L22.9653333,34.9413333 L22.9653333,31.72 L41.6106667,31.72 L41.6106667,34.9413333 Z M41.6106667,42.8606667 L22.9653333,42.8606667 L22.9653333,39.6393333 L41.6106667,39.6393333 L41.6106667,42.8606667 Z M26.5186667,11.3326667 L36.5733333,11.3326667 L36.5733333,13.818 L29.4746667,13.818 L29.4746667,16.698 L35.9893333,16.698 L35.9893333,18.9953333 L29.4746667,18.9953333 L29.4746667,22.29 L36.7233333,22.29 L36.7233333,24.7753333 L26.5186667,24.7753333 L26.5186667,11.3326667 Z M50.8273333,48.4986667 L50.8273333,7.29933333 C50.8273333,3.43933333 47.6986667,0.310666667 43.8393333,0.310666667 L10.896,0.310666667 C12.2086667,1.69466667 13.02,3.55866667 13.02,5.61266667 L13.02,54.544 C13.02,57.396 15.2066667,59.8526667 18.0553333,59.9933333 C21.0993333,60.1433333 23.624,57.71 23.624,54.698 L23.624,48.5013333 L50.828,48.5013333 C50.828,48.5006667 50.8273333,48.4993333 50.8273333,48.4986667 L50.8273333,48.4986667 Z" id="Fill-7"></path>
                    </g>
                </g>
            </g>
        </g>
    </g>
</svg>