<?xml version="1.0" encoding="UTF-8" standalone="no"?>
<svg width="60px" height="60px" viewBox="0 0 60 60" version="1.1" xmlns="http://www.w3.org/2000/svg" xmlns:xlink="http://www.w3.org/1999/xlink" xmlns:sketch="http://www.bohemiancoding.com/sketch/ns">
    <!-- Generator: Sketch 3.4 (15588) - http://www.bohemiancoding.com/sketch -->
    <title>Page 1</title>
    <desc>Created with Sketch.</desc>
    <defs></defs>
    <g id="Page-1" stroke="none" stroke-width="1" fill="none" fill-rule="evenodd" sketch:type="MSPage">
        <g id="Uso-de-suelo" sketch:type="MSArtboardGroup" transform="translate(-396.000000, -905.000000)" fill="#E6007E">
            <g id="Page-1" sketch:type="MSLayerGroup" transform="translate(396.000000, 905.000000)">
                <g sketch:type="MSShapeGroup">
                    <g id="Group-3">
                        <path d="M5.30173333,0.310333333 C2.3784,0.310333333 -0.000266666667,2.689 -0.000266666667,5.61233333 L-0.000266666667,9.70633333 L10.6037333,9.70633333 L10.6037333,5.61233333 C10.6037333,2.689 8.22506667,0.310333333 5.30173333,0.310333333" id="Fill-1"></path>
                    </g>
                    <g id="Group-6" transform="translate(23.000000, 50.000000)">
                        <path d="M3.04,0.917733333 L3.04,4.69773333 C3.04,6.75173333 2.22866667,8.61573333 0.916,9.99973333 L31.116,9.99973333 C34.0393333,9.99973333 36.418,7.62173333 36.418,4.69773333 L36.418,0.917733333 L3.04,0.917733333 Z" id="Fill-4"></path>
                    </g>
                    <path d="M41.6106667,34.9413333 L22.9653333,34.9413333 L22.9653333,31.72 L41.6106667,31.72 L41.6106667,34.9413333 Z M41.6106667,42.8606667 L22.9653333,42.8606667 L22.9653333,39.6393333 L41.6106667,39.6393333 L41.6106667,42.8606667 Z M24.568,14.7746667 L28.8686667,14.15 L30.792,10.2526667 C31.25,9.32466667 31.9926667,9.32466667 32.45,10.2526667 L34.3733333,14.15 L38.6746667,14.7746667 C39.698,14.9233333 39.9273333,15.6293333 39.1866667,16.3513333 L36.0746667,19.3853333 L36.8093333,23.6693333 C36.9846667,24.6886667 36.384,25.1246667 35.468,24.6433333 L31.6213333,22.6206667 L27.7746667,24.6433333 C26.8586667,25.1246667 26.258,24.6886667 26.4326667,23.6686667 L27.168,19.3853333 L24.0553333,16.3513333 C23.3146667,15.6293333 23.544,14.9233333 24.568,14.7746667 L24.568,14.7746667 Z M50.8273333,48.4986667 L50.8273333,7.29933333 C50.8273333,3.43933333 47.6986667,0.310666667 43.8393333,0.310666667 L10.896,0.310666667 C12.2086667,1.69466667 13.02,3.55866667 13.02,5.61266667 L13.02,54.544 C13.02,57.396 15.2066667,59.8526667 18.0553333,59.9933333 C21.0993333,60.1433333 23.624,57.71 23.624,54.698 L23.624,48.5013333 L50.828,48.5013333 C50.828,48.5006667 50.8273333,48.4993333 50.8273333,48.4986667 L50.8273333,48.4986667 Z" id="Fill-7"></path>
                </g>
            </g>
        </g>
    </g>
</svg>