<?xml version="1.0" encoding="UTF-8" standalone="no"?>
<svg width="70px" height="60px" viewBox="0 0 70 60" version="1.1" xmlns="http://www.w3.org/2000/svg" xmlns:xlink="http://www.w3.org/1999/xlink" xmlns:sketch="http://www.bohemiancoding.com/sketch/ns">
    <!-- Generator: Sketch 3.3.3 (12081) - http://www.bohemiancoding.com/sketch -->
    <title>Imported Layers</title>
    <desc>Created with Sketch.</desc>
    <defs></defs>
    <g id="Page-1" stroke="none" stroke-width="1" fill="none" fill-rule="evenodd" sketch:type="MSPage">
        <g id="Uso-de-suelo" sketch:type="MSArtboardGroup" transform="translate(-608.000000, -288.000000)" fill="#E6007E">
            <path d="M643.681682,319.132413 L643.681682,310.178459 L648.618426,310.178459 C649.4061,309.391483 648.861914,308.215203 648.07424,307.427529 L629.540519,288.89311 C628.753542,288.106831 627.475403,288.106831 626.689821,288.89311 L609.044938,306.535901 C608.256566,307.322878 607.713077,308.701483 608.500752,309.489855 L613.437496,309.489855 L613.437496,345.681017 C613.437496,346.79311 614.339589,347.696599 615.453077,347.696599 L659.760286,347.696599 C659.754705,347.653343 659.736566,338.665203 659.736566,338.665203 C659.736566,338.107064 660.186566,337.656366 660.744007,337.656366 L664.121449,337.656366 C664.680286,337.656366 665.129589,338.107064 665.129589,338.665203 L665.129589,347.57032 C665.129589,347.614273 675.867496,347.696599 675.867496,347.696599 C676.980286,347.696599 677.883775,346.792413 677.883775,345.68032 L677.883775,321.148692 C677.881682,320.034506 676.978891,319.132413 675.864705,319.132413 L643.681682,319.132413 Z M623.25238,336.649622 C623.25238,337.207762 622.801682,337.658459 622.243542,337.658459 L618.778891,337.658459 C618.222147,337.658459 617.770752,337.207762 617.770752,336.649622 L617.770752,333.184971 C617.770752,332.626831 618.221449,332.177529 618.778891,332.177529 L622.243542,332.177529 C622.801682,332.177529 623.25238,332.627529 623.25238,333.184971 L623.25238,336.649622 L623.25238,336.649622 Z M623.25238,326.566831 C623.25238,327.124273 622.801682,327.574273 622.243542,327.574273 L618.778891,327.574273 C618.222147,327.574273 617.770752,327.123576 617.770752,326.566831 L617.770752,323.101483 C617.770752,322.542645 618.221449,322.093343 618.778891,322.093343 L622.243542,322.093343 C622.801682,322.093343 623.25238,322.543343 623.25238,323.101483 L623.25238,326.566831 L623.25238,326.566831 Z M639.886333,336.649622 C639.886333,337.207762 639.435635,337.658459 638.878193,337.658459 L635.412845,337.658459 C634.855403,337.658459 634.404705,337.207762 634.404705,336.649622 L634.404705,333.184971 C634.404705,332.626831 634.855403,332.177529 635.412845,332.177529 L638.878193,332.177529 C639.434938,332.177529 639.886333,332.627529 639.886333,333.184971 L639.886333,336.649622 L639.886333,336.649622 Z M639.886333,326.566831 C639.886333,327.124273 639.435635,327.574273 638.878193,327.574273 L635.412845,327.574273 C634.855403,327.574273 634.404705,327.123576 634.404705,326.566831 L634.404705,323.101483 C634.404705,322.542645 634.855403,322.093343 635.412845,322.093343 L638.878193,322.093343 C639.434938,322.093343 639.886333,322.543343 639.886333,323.101483 L639.886333,326.566831 L639.886333,326.566831 Z M656.520984,336.649622 C656.520984,337.207762 656.070984,337.658459 655.512147,337.658459 L652.048193,337.658459 C651.489356,337.658459 651.040054,337.207762 651.040054,336.649622 L651.040054,333.184971 C651.040054,332.626831 651.490054,332.177529 652.048193,332.177529 L655.512147,332.177529 C656.071682,332.177529 656.520984,332.627529 656.520984,333.184971 L656.520984,336.649622 L656.520984,336.649622 Z M656.520984,326.566831 C656.520984,327.124273 656.070984,327.574273 655.512147,327.574273 L652.048193,327.574273 C651.489356,327.574273 651.040054,327.123576 651.040054,326.566831 L651.040054,323.101483 C651.040054,322.542645 651.490054,322.093343 652.048193,322.093343 L655.512147,322.093343 C656.071682,322.093343 656.520984,322.543343 656.520984,323.101483 L656.520984,326.566831 L656.520984,326.566831 Z M673.155635,336.649622 C673.155635,337.207762 672.704938,337.658459 672.148891,337.658459 L668.682147,337.658459 C668.124705,337.658459 667.674705,337.207762 667.674705,336.649622 L667.674705,333.184971 C667.674705,332.626831 668.125403,332.177529 668.682147,332.177529 L672.148891,332.177529 C672.704938,332.177529 673.155635,332.627529 673.155635,333.184971 L673.155635,336.649622 L673.155635,336.649622 Z M673.155635,326.566831 C673.155635,327.124273 672.704938,327.574273 672.148891,327.574273 L668.682147,327.574273 C668.124705,327.574273 667.674705,327.123576 667.674705,326.566831 L667.674705,323.101483 C667.674705,322.542645 668.125403,322.093343 668.682147,322.093343 L672.148891,322.093343 C672.704938,322.093343 673.155635,322.543343 673.155635,323.101483 L673.155635,326.566831 L673.155635,326.566831 Z" id="Imported-Layers" sketch:type="MSShapeGroup"></path>
        </g>
    </g>
</svg>