<?xml version="1.0" encoding="UTF-8" standalone="no"?>
<svg width="36px" height="60px" viewBox="0 0 36 60" version="1.1" xmlns="http://www.w3.org/2000/svg" xmlns:xlink="http://www.w3.org/1999/xlink" xmlns:sketch="http://www.bohemiancoding.com/sketch/ns">
    <!-- Generator: Sketch 3.3.3 (12081) - http://www.bohemiancoding.com/sketch -->
    <title>Rectangle 76</title>
    <desc>Created with Sketch.</desc>
    <defs></defs>
    <g id="Page-1" stroke="none" stroke-width="1" fill="none" fill-rule="evenodd" sketch:type="MSPage">
        <g id="Uso-de-suelo" sketch:type="MSArtboardGroup" transform="translate(-783.000000, -288.000000)" fill="#E6007E">
            <path d="M806.828775,348 L815.99258,348 C817.654461,348 819,346.658673 819,345.004063 L819,290.995937 C819,289.33731 817.653532,288 815.99258,288 L786.00742,288 C784.345539,288 783,289.341327 783,290.995937 L783,345.004063 C783,346.66269 784.346468,348 786.00742,348 L796.171104,348 C796.060295,347.687316 796,347.350908 796,347.000578 L796,337.999422 C796,336.342887 797.348816,335 799.005798,335 L803.994202,335 C805.654258,335 807,336.344351 807,337.999422 L807,347.000578 C807,347.351002 806.939641,347.68739 806.828775,348 L806.828775,348 Z M795.981628,299.775494 C795.981628,300.333634 795.53093,300.784331 794.973488,300.784331 L791.50814,300.784331 C790.950698,300.784331 790.5,300.333634 790.5,299.775494 L790.5,296.310843 C790.5,295.752703 790.950698,295.303401 791.50814,295.303401 L794.973488,295.303401 C795.530233,295.303401 795.981628,295.753401 795.981628,296.310843 L795.981628,299.775494 Z M795.981628,311.775494 C795.981628,312.333634 795.53093,312.784331 794.973488,312.784331 L791.50814,312.784331 C790.950698,312.784331 790.5,312.333634 790.5,311.775494 L790.5,308.310843 C790.5,307.752703 790.950698,307.303401 791.50814,307.303401 L794.973488,307.303401 C795.530233,307.303401 795.981628,307.753401 795.981628,308.310843 L795.981628,311.775494 Z M811,299.775494 C811,300.333634 810.549302,300.784331 809.99186,300.784331 L806.526512,300.784331 C805.96907,300.784331 805.518372,300.333634 805.518372,299.775494 L805.518372,296.310843 C805.518372,295.752703 805.96907,295.303401 806.526512,295.303401 L809.99186,295.303401 C810.548605,295.303401 811,295.753401 811,296.310843 L811,299.775494 Z M811,311.775494 C811,312.333634 810.549302,312.784331 809.99186,312.784331 L806.526512,312.784331 C805.96907,312.784331 805.518372,312.333634 805.518372,311.775494 L805.518372,308.310843 C805.518372,307.752703 805.96907,307.303401 806.526512,307.303401 L809.99186,307.303401 C810.548605,307.303401 811,307.753401 811,308.310843 L811,311.775494 Z M795.981628,323.775494 C795.981628,324.333634 795.53093,324.784331 794.973488,324.784331 L791.50814,324.784331 C790.950698,324.784331 790.5,324.333634 790.5,323.775494 L790.5,320.310843 C790.5,319.752703 790.950698,319.303401 791.50814,319.303401 L794.973488,319.303401 C795.530233,319.303401 795.981628,319.753401 795.981628,320.310843 L795.981628,323.775494 Z M811,323.775494 C811,324.333634 810.549302,324.784331 809.99186,324.784331 L806.526512,324.784331 C805.96907,324.784331 805.518372,324.333634 805.518372,323.775494 L805.518372,320.310843 C805.518372,319.752703 805.96907,319.303401 806.526512,319.303401 L809.99186,319.303401 C810.548605,319.303401 811,319.753401 811,320.310843 L811,323.775494 Z" id="Rectangle-76" sketch:type="MSShapeGroup"></path>
        </g>
    </g>
</svg>