<?xml version="1.0" encoding="UTF-8" standalone="no"?>
<svg width="60px" height="55px" viewBox="0 0 60 55" version="1.1" xmlns="http://www.w3.org/2000/svg" xmlns:xlink="http://www.w3.org/1999/xlink" xmlns:sketch="http://www.bohemiancoding.com/sketch/ns">
    <!-- Generator: Sketch 3.3.3 (12081) - http://www.bohemiancoding.com/sketch -->
    <title>Imported Layers + Path Copy 2 + Path Copy Copy + $</title>
    <desc>Created with Sketch.</desc>
    <defs></defs>
    <g id="Page-1" stroke="none" stroke-width="1" fill="none" fill-rule="evenodd" sketch:type="MSPage">
        <g id="Uso-de-suelo" sketch:type="MSArtboardGroup" transform="translate(-929.000000, -290.000000)">
            <g id="Imported-Layers-+-Path-Copy-2-+-Path-Copy-Copy-+-$" sketch:type="MSLayerGroup" transform="translate(929.000000, 289.000000)">
                <g id="Imported-Layers-+-Path-Copy-2-+-Path-Copy-Copy" transform="translate(0.500000, 0.303401)" sketch:type="MSShapeGroup">
                    <g id="Imported-Layers-+-Path-Copy-2-+-Path-Copy">
                        <path d="M59.0355294,21.2519802 L52.1711729,16.449604 L52.1711729,1.71217822 C52.1711729,1.22564356 51.7737472,0.83 51.2830541,0.83 L44.5060244,0.83 C44.0177076,0.83 43.6238462,1.22564356 43.6238462,1.71217822 L43.6238462,10.4680198 L30.2034502,1.07712871 C29.9064205,0.862673267 29.4941432,0.862673267 29.1977076,1.07712871 L0.375133329,21.2519802 C0.1838462,21.3880198 0.0495887741,21.5858416 0.012757091,21.8252475 C-0.0258567704,22.0521782 0.0234501603,22.2909901 0.157113527,22.4846535 L4.08146996,28.0830693 C4.25671749,28.330198 4.53057887,28.4626733 4.81097491,28.4626733 C4.98206402,28.4626733 5.16146996,28.4169307 5.31830165,28.3016832 L7.03929174,27.0981188 L7.03929174,54.4670297 C7.03929174,54.9535644 7.43968778,55.3533663 7.92800462,55.3533663 L23.0800838,55.3533663 C23.5684007,55.3533663 23.9640442,54.9535644 23.9640442,54.4670297 L23.9640442,34.0444554 L35.4383016,34.0444554 L35.4383016,54.4670297 C35.4383016,54.9535644 35.8386977,55.3533663 36.3270145,55.3533663 L51.3638462,55.3533663 C51.852163,55.3533663 52.2436482,54.9535644 52.2436482,54.4670297 L52.2436482,27.0113861 L54.0899848,28.3016832 C54.4945393,28.5862376 55.0464205,28.4911881 55.3226581,28.0836634 L59.2452323,22.4852475 C59.3812719,22.2915842 59.4329551,22.0521782 59.391965,21.8258416 C59.3551333,21.5864356 59.2208759,21.3886139 59.0355294,21.2519802" id="Imported-Layers" fill="#E6007E"></path>
                        <path d="M18.4816279,43.472093 C18.4816279,44.0302326 18.0309302,44.4809302 17.4727907,44.4809302 L14.0081395,44.4809302 C13.4513953,44.4809302 13,44.0302326 13,43.472093 L13,40.0074419 C13,39.4493023 13.4506977,39 14.0081395,39 L17.4727907,39 C18.0309302,39 18.4816279,39.45 18.4816279,40.0074419 L18.4816279,43.472093 L18.4816279,43.472093 Z" id="Path-Copy-2" stroke="#FFFFFF" fill="#FFFFFF"></path>
                        <path d="M46.4816279,43.472093 C46.4816279,44.0302326 46.0309302,44.4809302 45.4734884,44.4809302 L42.0081395,44.4809302 C41.4506977,44.4809302 41,44.0302326 41,43.472093 L41,40.0074419 C41,39.4493023 41.4506977,39 42.0081395,39 L45.4734884,39 C46.0302326,39 46.4816279,39.45 46.4816279,40.0074419 L46.4816279,43.472093 L46.4816279,43.472093 Z" id="Path-Copy" stroke="#FFFFFF" fill="#FFFFFF"></path>
                    </g>
                </g>
                <path d="M28.91,45.68 L27.5,45.68 C27.566667,46.4666706 27.8099979,47.0633313 28.23,47.47 C28.6500021,47.8766687 29.2333296,48.1066664 29.98,48.16 L29.98,49.01 L30.57,49.01 L30.57,48.16 C31.0700025,48.1266665 31.4799984,48.0266675 31.8,47.86 C32.1200016,47.6933325 32.374999,47.5033344 32.565,47.29 C32.755001,47.0766656 32.8866663,46.8583345 32.96,46.635 C33.0333337,46.4116656 33.07,46.2266674 33.07,46.08 C33.07,45.9133325 33.0583334,45.7233344 33.035,45.51 C33.0116666,45.2966656 32.9366673,45.0833344 32.81,44.87 C32.6833327,44.6566656 32.486668,44.4516677 32.22,44.255 C31.953332,44.0583324 31.5733358,43.893334 31.08,43.76 C30.9866662,43.7333332 30.8983337,43.7100001 30.815,43.69 C30.7316662,43.6699999 30.6500004,43.6500001 30.57,43.63 L30.57,41.86 C30.7966678,41.86 30.9899992,41.9533324 31.15,42.14 C31.3100008,42.3266676 31.3933333,42.553332 31.4,42.82 L32.82,42.82 C32.7999999,42.4733316 32.7266673,42.1733346 32.6,41.92 C32.4733327,41.6666654 32.310001,41.4550009 32.11,41.285 C31.909999,41.1149992 31.6783347,40.9816672 31.415,40.885 C31.1516654,40.7883329 30.8700015,40.7233335 30.57,40.69 L30.57,39.92 L29.98,39.92 L29.98,40.69 C29.6799985,40.7100001 29.3900014,40.7683329 29.11,40.865 C28.8299986,40.9616672 28.5833344,41.0983325 28.37,41.275 C28.1566656,41.4516676 27.9850006,41.6699987 27.855,41.93 C27.7249994,42.1900013 27.66,42.4899983 27.66,42.83 C27.66,43.163335 27.7166661,43.4416656 27.83,43.665 C27.9433339,43.8883345 28.094999,44.0749993 28.285,44.225 C28.475001,44.3750008 28.6899988,44.4949996 28.93,44.585 C29.1700012,44.6750005 29.4133321,44.753333 29.66,44.82 C29.726667,44.8333334 29.788333,44.8483333 29.845,44.865 C29.9016669,44.8816668 29.9466665,44.8966666 29.98,44.91 L29.98,47 C29.6733318,46.9399997 29.4166677,46.8000011 29.21,46.58 C29.0033323,46.3599989 28.9033333,46.0600019 28.91,45.68 L28.91,45.68 Z M30.57,47 L30.57,45.08 C30.9633353,45.1866672 31.2416659,45.3049994 31.405,45.435 C31.5683341,45.5650007 31.65,45.7599987 31.65,46.02 C31.65,46.1800008 31.616667,46.3183328 31.55,46.435 C31.483333,46.5516673 31.3983339,46.6499996 31.295,46.73 C31.1916661,46.8100004 31.0750006,46.8716665 30.945,46.915 C30.8149994,46.9583336 30.6900006,46.9866666 30.57,47 L30.57,47 Z M29.98,41.86 L29.98,43.49 C29.6599984,43.4166663 29.4300007,43.3200006 29.29,43.2 C29.1499993,43.0799994 29.08,42.9100011 29.08,42.69 C29.08,42.5499993 29.1049998,42.4283339 29.155,42.325 C29.2050003,42.2216662 29.2733329,42.1350004 29.36,42.065 C29.4466671,41.9949997 29.5433328,41.9433335 29.65,41.91 C29.7566672,41.8766665 29.8666661,41.86 29.98,41.86 L29.98,41.86 Z" id="$" fill="#E6007E" sketch:type="MSShapeGroup"></path>
            </g>
        </g>
    </g>
</svg>