<?xml version="1.0" encoding="UTF-8" standalone="no"?>
<svg width="60px" height="55px" viewBox="0 0 60 55" version="1.1" xmlns="http://www.w3.org/2000/svg" xmlns:xlink="http://www.w3.org/1999/xlink" xmlns:sketch="http://www.bohemiancoding.com/sketch/ns">
    <!-- Generator: Sketch 3.3.3 (12081) - http://www.bohemiancoding.com/sketch -->
    <title>Imported Layers + Path Copy 2 + Path Copy</title>
    <desc>Created with Sketch.</desc>
    <defs></defs>
    <g id="Page-1" stroke="none" stroke-width="1" fill="none" fill-rule="evenodd" sketch:type="MSPage">
        <g id="Uso-de-suelo" sketch:type="MSArtboardGroup" transform="translate(-454.000000, -291.000000)" fill="#E6007E">
            <g id="Imported-Layers-+-Path-Copy-2-+-Path-Copy" sketch:type="MSLayerGroup" transform="translate(454.500000, 290.303401)">
                <g id="Imported-Layers" sketch:type="MSShapeGroup">
                    <path d="M59.0355294,21.2519802 L52.1711729,16.449604 L52.1711729,1.71217822 C52.1711729,1.22564356 51.7737472,0.83 51.2830541,0.83 L44.5060244,0.83 C44.0177076,0.83 43.6238462,1.22564356 43.6238462,1.71217822 L43.6238462,10.4680198 L30.2034502,1.07712871 C29.9064205,0.862673267 29.4941432,0.862673267 29.1977076,1.07712871 L0.375133329,21.2519802 C0.1838462,21.3880198 0.0495887741,21.5858416 0.012757091,21.8252475 C-0.0258567704,22.0521782 0.0234501603,22.2909901 0.157113527,22.4846535 L4.08146996,28.0830693 C4.25671749,28.330198 4.53057887,28.4626733 4.81097491,28.4626733 C4.98206402,28.4626733 5.16146996,28.4169307 5.31830165,28.3016832 L7.03929174,27.0981188 L7.03929174,54.4670297 C7.03929174,54.9535644 7.43968778,55.3533663 7.92800462,55.3533663 L23.0800838,55.3533663 C23.5684007,55.3533663 23.9640442,54.9535644 23.9640442,54.4670297 L23.9640442,34.0444554 L35.4383016,34.0444554 L35.4383016,54.4670297 C35.4383016,54.9535644 35.8386977,55.3533663 36.3270145,55.3533663 L51.3638462,55.3533663 C51.852163,55.3533663 52.2436482,54.9535644 52.2436482,54.4670297 L52.2436482,27.0113861 L54.0899848,28.3016832 C54.4945393,28.5862376 55.0464205,28.4911881 55.3226581,28.0836634 L59.2452323,22.4852475 C59.3812719,22.2915842 59.4329551,22.0521782 59.391965,21.8258416 C59.3551333,21.5864356 59.2208759,21.3886139 59.0355294,21.2519802 Z M18.4816279,43.472093 C18.4816279,44.0302326 18.0309302,44.4809302 17.4727907,44.4809302 L14.0081395,44.4809302 C13.4513953,44.4809302 13,44.0302326 13,43.472093 L13,40.0074419 C13,39.4493023 13.4506977,39 14.0081395,39 L17.4727907,39 C18.0309302,39 18.4816279,39.45 18.4816279,40.0074419 L18.4816279,43.472093 Z M46.4816279,43.472093 C46.4816279,44.0302326 46.0309302,44.4809302 45.4734884,44.4809302 L42.0081395,44.4809302 C41.4506977,44.4809302 41,44.0302326 41,43.472093 L41,40.0074419 C41,39.4493023 41.4506977,39 42.0081395,39 L45.4734884,39 C46.0302326,39 46.4816279,39.45 46.4816279,40.0074419 L46.4816279,43.472093 Z"></path>
                </g>
            </g>
        </g>
    </g>
</svg>