<?xml version="1.0" encoding="UTF-8" standalone="no"?>
<svg width="70px" height="38px" viewBox="0 0 70 38" version="1.1" xmlns="http://www.w3.org/2000/svg" xmlns:xlink="http://www.w3.org/1999/xlink" xmlns:sketch="http://www.bohemiancoding.com/sketch/ns">
    <!-- Generator: Sketch 3.3.3 (12081) - http://www.bohemiancoding.com/sketch -->
    <title>Imported Layers</title>
    <desc>Created with Sketch.</desc>
    <defs></defs>
    <g id="Page-1" stroke="none" stroke-width="1" fill="none" fill-rule="evenodd" sketch:type="MSPage">
        <g id="Impacto" sketch:type="MSArtboardGroup" transform="translate(-528.000000, -302.000000)" fill="#E6007E">
            <g id="Imported-Layers" sketch:type="MSLayerGroup" transform="translate(528.000000, 301.905000)">
                <path d="M66.9116,10.6414 C65.2106,10.6414 63.8337,12.0197 63.8337,13.72 L63.8337,20.8838 L6.1677,20.8838 L6.1677,3.4181 C6.1677,1.7178 4.7887,0.3395 3.0891,0.3395 C1.3895,0.3395 0.0112,1.7178 0.0112,3.4181 L0.0112,34.3812 C0.0112,36.0815 1.3895,37.4591 3.0891,37.4591 C4.7887,37.4591 6.1677,36.0808 6.1677,34.3812 L6.1677,29.2614 L63.8337,29.2614 L63.8337,34.3812 C63.8337,36.0815 65.2113,37.4591 66.9116,37.4591 C68.6119,37.4591 69.9902,36.0808 69.9902,34.3812 L69.9902,13.72 C69.9902,12.0197 68.6119,10.6414 66.9116,10.6414" id="Fill-1" sketch:type="MSShapeGroup"></path>
                <path d="M11.6543,18.8062 L23.7874,18.8062 C25.3064,18.8062 26.5384,17.5742 26.5384,16.0552 L26.5384,7.2373 C26.5384,5.719 25.3064,4.487 23.7874,4.487 C22.2684,4.487 21.0364,5.7183 21.0364,7.2373 L21.0364,13.3042 L11.6543,13.3042 C10.1353,13.3042 8.9033,14.5355 8.9033,16.0552 C8.904,17.5735 10.1353,18.8062 11.6543,18.8062" id="Fill-2" sketch:type="MSShapeGroup"></path>
                <path d="M14.6335,1.4042 C17.6288,1.4042 20.0571,3.8325 20.0571,6.8278 C20.0571,9.8231 17.6288,12.2514 14.6335,12.2514 C11.6382,12.2514 9.2099,9.8231 9.2099,6.8278 C9.2099,3.8325 11.6382,1.4042 14.6335,1.4042" id="Fill-3" sketch:type="MSShapeGroup"></path>
                <path d="M61.8534,11.627 C61.8534,7.6832 58.6572,4.487 54.7141,4.487 L28.5362,4.487 L28.5362,18.8055 L61.8541,18.8055 L61.8541,11.627 L61.8534,11.627" id="Fill-4" sketch:type="MSShapeGroup"></path>
            </g>
        </g>
    </g>
</svg>