<?xml version="1.0" encoding="UTF-8" standalone="no"?>
<svg width="25px" height="25px" viewBox="0 0 25 25" version="1.1" xmlns="http://www.w3.org/2000/svg" xmlns:xlink="http://www.w3.org/1999/xlink" xmlns:sketch="http://www.bohemiancoding.com/sketch/ns">
    <!-- Generator: Sketch 3.4.1 (15681) - http://www.bohemiancoding.com/sketch -->
    <title>noun_82570_cc</title>
    <desc>Created with Sketch.</desc>
    <defs></defs>
    <g id="Page-1" stroke="none" stroke-width="1" fill="none" fill-rule="evenodd" sketch:type="MSPage">
        <g id="Salidas" sketch:type="MSArtboardGroup" transform="translate(-994.000000, -148.000000)" fill="#E6007E">
            <g id="noun_82570_cc" sketch:type="MSLayerGroup" transform="translate(994.000000, 148.000000)">
                <path d="M4.69035714,0 L20.3092857,0 L20.3092857,5.815 L4.69035714,5.815 L4.69035714,0 L4.69035714,0 Z M20.3092857,25 L4.69035714,25 L4.69035714,17.5042857 L20.3092857,17.5042857 L20.3092857,25 L20.3092857,25 Z M24.9992857,18.7482143 C24.9992857,19.6092857 24.2996429,20.31 23.4371429,20.31 L21.8725,20.31 L21.8725,15.9425 L3.12857143,15.9425 L3.12857143,20.31 L1.5625,20.31 C0.701428571,20.31 0.000714285714,19.6092857 0.000714285714,18.7482143 L0.000714285714,8.94535714 C0.000714285714,8.08035714 0.701428571,7.37714286 1.5625,7.37714286 L23.4371429,7.37714286 C24.2996429,7.37714286 24.9992857,8.08035714 24.9992857,8.94535714 L24.9992857,18.7482143 L24.9992857,18.7482143 Z M20.0782143,11.3535714 L21.6807143,11.3535714 L21.6807143,9.75 L20.0782143,9.75 L20.0782143,11.3535714 L20.0782143,11.3535714 Z" id="Shape" sketch:type="MSShapeGroup"></path>
            </g>
        </g>
    </g>
</svg>