<?xml version="1.0" encoding="UTF-8" standalone="no"?>
<svg width="59px" height="60px" viewBox="0 0 59 60" version="1.1" xmlns="http://www.w3.org/2000/svg" xmlns:xlink="http://www.w3.org/1999/xlink" xmlns:sketch="http://www.bohemiancoding.com/sketch/ns">
    <!-- Generator: Sketch 3.5.2 (25235) - http://www.bohemiancoding.com/sketch -->
    <title>Group 2</title>
    <desc>Created with Sketch.</desc>
    <defs></defs>
    <g id="Page-1" stroke="none" stroke-width="1" fill="none" fill-rule="evenodd" sketch:type="MSPage">
        <g id="--Respuesta-No-se" sketch:type="MSArtboardGroup" transform="translate(-1041.000000, -289.000000)" fill="#E6007E">
            <g id="Group-2" sketch:type="MSLayerGroup" transform="translate(1041.000000, 289.000000)">
                <g id="Page-1" sketch:type="MSShapeGroup">
                    <path d="M6.80654118,0.575223529 L4.53783529,25.9672235 L18.1514824,25.9672235 L15.8827765,0.575223529 L6.80654118,0.575223529 Z" id="Fill-1"></path>
                    <path d="M39.5813647,28.2340235 L39.5813647,11.6457882 L20.1696,28.2340235 L-0.000282352941,28.2340235 L-0.000282352941,60.0001412 L58.9931294,60.0001412 L58.9931294,11.6457882 L39.5813647,28.2340235 Z M38.7237176,39.8620235 L47.7999529,39.8620235 L47.7999529,48.9375529 L38.7237176,48.9375529 L38.7237176,39.8620235 Z M25.1107765,39.8620235 L34.1863059,39.8620235 L34.1863059,48.9375529 L25.1107765,48.9375529 L25.1107765,39.8620235 Z M11.4964235,39.8620235 L20.5719529,39.8620235 L20.5719529,48.9375529 L11.4964235,48.9375529 L11.4964235,39.8620235 Z" id="Fill-2"></path>
                </g>
            </g>
        </g>
    </g>
</svg>