<?xml version="1.0" encoding="UTF-8" standalone="no"?>
<svg width="35px" height="52px" viewBox="0 0 35 52" version="1.1" xmlns="http://www.w3.org/2000/svg" xmlns:xlink="http://www.w3.org/1999/xlink" xmlns:sketch="http://www.bohemiancoding.com/sketch/ns">
    <!-- Generator: Sketch 3.3.3 (12081) - http://www.bohemiancoding.com/sketch -->
    <title>? copy 2</title>
    <desc>Created with Sketch.</desc>
    <defs></defs>
    <g id="Page-1" stroke="none" stroke-width="1" fill="none" fill-rule="evenodd" sketch:type="MSPage">
        <g id="Uso-de-suelo" sketch:type="MSArtboardGroup" transform="translate(-874.000000, -293.000000)" fill="#E6007E">
            <path d="M885.51,334.22 L885.51,345 L896.5,345 L896.5,334.22 L885.51,334.22 Z M874.24,311.12 L884.53,311.12 C884.53,309.859994 884.669999,308.681672 884.95,307.585 C885.230001,306.488328 885.661664,305.531671 886.245,304.715 C886.828336,303.898329 887.574995,303.245002 888.485,302.755 C889.395005,302.264998 890.479994,302.02 891.74,302.02 C893.606676,302.02 895.064995,302.533328 896.115,303.56 C897.165005,304.586672 897.69,306.173323 897.69,308.32 C897.736667,309.580006 897.515002,310.629996 897.025,311.47 C896.534998,312.310004 895.893337,313.079996 895.1,313.78 C894.306663,314.480004 893.443338,315.179997 892.51,315.88 C891.576662,316.580003 890.690004,317.408329 889.85,318.365 C889.009996,319.321671 888.275003,320.47666 887.645,321.83 C887.014997,323.18334 886.630001,324.863323 886.49,326.87 L886.49,330.02 L895.94,330.02 L895.94,327.36 C896.126668,325.959993 896.581663,324.793338 897.305,323.86 C898.028337,322.926662 898.856662,322.098337 899.79,321.375 C900.723338,320.651663 901.714995,319.928337 902.765,319.205 C903.815005,318.481663 904.771662,317.606672 905.635,316.58 C906.498338,315.553328 907.221664,314.316674 907.805,312.87 C908.388336,311.423326 908.68,309.580011 908.68,307.34 C908.68,305.98666 908.388336,304.528341 907.805,302.965 C907.221664,301.401659 906.25334,299.94334 904.9,298.59 C903.54666,297.23666 901.761678,296.105005 899.545,295.195 C897.328322,294.284995 894.56335,293.83 891.25,293.83 C888.683321,293.83 886.361677,294.261662 884.285,295.125 C882.208323,295.988338 880.435007,297.189992 878.965,298.73 C877.494993,300.270008 876.351671,302.08999 875.535,304.19 C874.718329,306.29001 874.286667,308.599987 874.24,311.12 L874.24,311.12 Z" id="?-copy-2" sketch:type="MSShapeGroup"></path>
        </g>
    </g>
</svg>