<?xml version="1.0" encoding="UTF-8" standalone="no"?>
<svg width="60px" height="73px" viewBox="0 0 60 73" version="1.1" xmlns="http://www.w3.org/2000/svg" xmlns:xlink="http://www.w3.org/1999/xlink" xmlns:sketch="http://www.bohemiancoding.com/sketch/ns">
    <!-- Generator: Sketch 3.4.2 (15857) - http://www.bohemiancoding.com/sketch -->
    <title>Page 1</title>
    <desc>Created with Sketch.</desc>
    <defs></defs>
    <g id="Page-1" stroke="none" stroke-width="1" fill-rule="evenodd" sketch:type="MSPage">
        <g id="Centro-de-Aprendizaje" sketch:type="MSArtboardGroup" transform="translate(-370.000000, -522.000000)">
            <g id="Page-1" sketch:type="MSLayerGroup" transform="translate(370.000000, 522.000000)">
                <path d="M50.3813514,15.27 L50.3813514,28.9491892 L54.1386486,28.9491892 L54.1386486,13.8251351 C54.1386486,13.1505405 53.85,12.5724324 53.3683784,12.0908108 L40.6524324,0.724054054 C40.1708108,0.338918919 39.5927027,0.145945946 39.0145946,0.145945946 L2.40810811,0.145945946 C1.05972973,0.145945946 0,1.20567568 0,2.55405405 L0,70.5648649 C0,71.9132432 1.05972973,72.972973 2.40810811,72.972973 L51.8262162,72.972973 C53.1745946,72.972973 54.2343243,71.9132432 54.2343243,70.5648649 L54.2343243,52.6467568 L50.3813514,52.6467568 L50.3813514,69.1191892 L3.85297297,69.1191892 L3.85297297,3.99891892 L38.2435135,3.99891892 L38.2435135,15.27 L50.3813514,15.27 Z" id="Fill-1" sketch:type="MSShapeGroup"></path>
                <path d="M34.1035135,37.8478378 C33.8764865,37.8048649 33.42,37.7837838 32.7340541,37.7837838 L31.8145946,37.7837838 L31.8145946,40.4594595 L32.8564865,40.4594595 C33.6064865,40.4594595 34.1083784,40.41 34.3613514,40.3118919 C34.6143243,40.212973 34.812973,40.0589189 34.9564865,39.8489189 C35.1,39.6389189 35.1721622,39.3940541 35.1721622,39.1159459 C35.1721622,38.772973 35.0716216,38.49 34.8697297,38.267027 C34.6678378,38.0424324 34.4124324,37.9037838 34.1035135,37.8478378" id="Fill-3" sketch:type="MSShapeGroup"></path>
                <path d="M43.8916216,38.3172973 C43.6605405,38.0983784 43.3662162,37.9508108 43.0102703,37.8737838 C42.7443243,37.8137838 42.2237838,37.7837838 41.4478378,37.7837838 L40.5924324,37.7837838 L40.5924324,44.0286486 L42.0137838,44.0286486 C42.5456757,44.0286486 42.9291892,43.9986486 43.1651351,43.9386486 C43.4740541,43.8616216 43.7302703,43.7310811 43.9337838,43.5462162 C44.1372973,43.3621622 44.3035135,43.0581081 44.4324324,42.6364865 C44.5613514,42.2140541 44.6254054,41.6383784 44.6254054,40.9094595 C44.6254054,40.1805405 44.5613514,39.6210811 44.4324324,39.2310811 C44.3035135,38.8402703 44.1235135,38.5362162 43.8916216,38.3172973" id="Fill-5" sketch:type="MSShapeGroup"></path>
                <path d="M54.1410811,37.782973 L49.5818919,37.782973 L49.5818919,40.0143243 L53.5175676,40.0143243 L53.5175676,41.6091892 L49.5818919,41.6091892 L49.5818919,45.6154054 L47.6781081,45.6154054 L47.6781081,36.1889189 L54.1410811,36.1889189 L54.1410811,37.782973 Z M46.302973,42.9989189 C46.067027,43.6848649 45.7305405,44.2402703 45.2935135,44.6643243 C44.9635135,44.9862162 44.5175676,45.2367568 43.9556757,45.4167568 C43.5356757,45.5497297 42.9737838,45.6162162 42.2708108,45.6162162 L38.6886486,45.6162162 L38.6886486,36.1889189 L42.1678378,36.1889189 C42.9527027,36.1889189 43.5502703,36.2489189 43.9621622,36.3689189 C44.5151351,36.5318919 44.9886486,36.8213514 45.3835135,37.2372973 C45.7775676,37.6532432 46.0783784,38.1624324 46.2835135,38.7648649 C46.4894595,39.3672973 46.5924324,40.11 46.5924324,40.992973 C46.5924324,41.7681081 46.4959459,42.437027 46.302973,42.9989189 L46.302973,42.9989189 Z M36.8172973,40.5486486 C36.6072973,40.9427027 36.3405405,41.2532432 36.0162162,41.4778378 C35.6927027,41.7032432 35.3635135,41.8516216 35.0294595,41.9245946 C34.5745946,42.0145946 33.917027,42.06 33.0551351,42.06 L31.8137838,42.06 L31.8137838,45.6162162 L29.91,45.6162162 L29.91,36.1889189 L32.9643243,36.1889189 C34.1221622,36.1889189 34.8762162,36.2359459 35.2281081,36.33 C35.7681081,36.4710811 36.2205405,36.7791892 36.5854054,37.2527027 C36.9494595,37.7262162 37.1318919,38.3383784 37.1318919,39.0883784 C37.1327027,39.6672973 37.0281081,40.1545946 36.8172973,40.5486486 L36.8172973,40.5486486 Z M57.2197297,31.5827027 L26.2897297,31.5827027 C24.7783784,31.5827027 23.5532432,32.8078378 23.5532432,34.3191892 L23.5532432,47.4867568 C23.5532432,48.9981081 24.7783784,50.2232432 26.2897297,50.2232432 L57.2197297,50.2232432 C58.7310811,50.2232432 59.9562162,48.9981081 59.9562162,47.4867568 L59.9562162,34.3191892 C59.9562162,32.807027 58.7310811,31.5827027 57.2197297,31.5827027 L57.2197297,31.5827027 Z" id="Fill-7" sketch:type="MSShapeGroup"></path>
            </g>
        </g>
    </g>
</svg>