<?xml version="1.0" encoding="UTF-8" standalone="no"?>
<svg width="71px" height="45px" viewBox="0 0 71 45" version="1.1" xmlns="http://www.w3.org/2000/svg" xmlns:xlink="http://www.w3.org/1999/xlink" xmlns:sketch="http://www.bohemiancoding.com/sketch/ns">
    <!-- Generator: Sketch 3.3.3 (12081) - http://www.bohemiancoding.com/sketch -->
    <title>Imported Layers</title>
    <desc>Created with Sketch.</desc>
    <defs></defs>
    <g id="Page-1" stroke="none" stroke-width="1" fill="none" fill-rule="evenodd" sketch:type="MSPage">
        <g id="Impacto" sketch:type="MSArtboardGroup" transform="translate(-189.000000, -297.000000)" fill="#E6007E">
            <g id="Imported-Layers" sketch:type="MSLayerGroup" transform="translate(188.518987, 296.905000)">
                <path d="M66.7074194,35.0740927 C66.7074194,22.0658065 54.9685887,11.3546774 39.8140121,9.79125 C40.913125,8.76679435 41.6105847,7.31725806 41.6105847,5.69540323 C41.6105847,2.59635081 39.0983468,0.0838306452 35.9981653,0.0838306452 C32.8979839,0.0838306452 30.3854637,2.59635081 30.3854637,5.69540323 C30.3854637,7.31725806 31.0829234,8.76679435 32.1821774,9.79125 C17.0276008,11.3546774 5.28905242,22.0658065 5.28905242,35.0740927 C5.28905242,35.0764919 66.7074194,35.0764919 66.7074194,35.0740927 L66.7074194,35.0740927 Z M27.0405645,17.614879 C22.7245565,18.9969556 19.0681855,21.5746774 16.7435081,24.8737097 C16.407621,25.3524194 15.8727419,25.6061694 15.3310887,25.6061694 C14.9871573,25.6061694 14.6399798,25.505121 14.3378226,25.2915927 C13.5590726,24.7431653 13.3727823,23.6646573 13.9209274,22.8870363 C16.6761895,18.9767742 20.9617137,15.9361492 25.9890121,14.3293952 C26.9002823,14.0371169 27.8677218,14.5406653 28.1585887,15.4462903 C28.4483266,16.3541734 27.9483065,17.325 27.0405645,17.614879 L27.0405645,17.614879 Z" id="Fill-1" sketch:type="MSShapeGroup"></path>
                <path d="M67.5447379,37.5777218 L4.451875,37.5777218 C2.54508065,37.5777218 1,39.1239315 1,41.0295968 C1,42.9352621 2.54508065,44.4813306 4.451875,44.4813306 L67.5447379,44.4813306 C69.4515323,44.4813306 70.9964718,42.935121 70.9964718,41.0295968 C70.9964718,39.1240726 69.4513911,37.5777218 67.5447379,37.5777218" id="Fill-2" sketch:type="MSShapeGroup"></path>
            </g>
        </g>
    </g>
</svg>