<?xml version="1.0" encoding="UTF-8" standalone="no"?>
<svg width="42px" height="59px" viewBox="0 0 42 59" version="1.1" xmlns="http://www.w3.org/2000/svg" xmlns:xlink="http://www.w3.org/1999/xlink" xmlns:sketch="http://www.bohemiancoding.com/sketch/ns">
    <!-- Generator: Sketch 3.3.3 (12081) - http://www.bohemiancoding.com/sketch -->
    <title>Imported Layers</title>
    <desc>Created with Sketch.</desc>
    <defs></defs>
    <g id="Page-1" stroke="none" stroke-width="1" fill="none" fill-rule="evenodd" sketch:type="MSPage">
        <g id="Impacto" sketch:type="MSArtboardGroup" transform="translate(-370.000000, -289.000000)" fill="#E6007E">
            <path d="M410.768908,291.112885 C407.435574,290.446219 403.935574,289.696219 400.435574,289.529552 C396.352241,289.362885 392.768908,289.946219 389.768908,291.279552 C388.935574,291.612885 387.935574,292.196219 387.268908,293.112885 C386.685574,293.862885 386.685574,294.529552 386.852241,295.112885 C387.102241,295.946219 387.018908,296.862885 386.768908,297.612885 L370.268908,345.529552 C369.852241,346.696219 370.768908,347.862885 371.935574,347.862885 L405.518908,347.862885 C406.768908,347.862885 407.602241,346.612885 407.185574,345.529552 L390.935574,297.946219 C390.602241,296.862885 391.185574,295.696219 392.268908,295.279552 C393.435574,294.946219 394.935574,294.529552 396.018908,294.529552 C397.352241,294.529552 398.768908,294.529552 399.852241,295.029552 C400.435574,295.279552 401.018908,295.779552 401.602241,296.196219 C401.852241,296.362885 402.102241,296.529552 402.268908,296.779552 C403.435574,297.696219 404.852241,298.446219 406.602241,299.196219 C406.768908,299.279552 406.935574,299.279552 407.102241,299.279552 C407.602241,299.279552 408.102241,299.029552 408.268908,298.529552 C408.602241,297.862885 408.268908,297.112885 407.602241,296.779552 C406.018908,296.029552 404.768908,295.362885 403.768908,294.612885 C403.685574,294.529552 403.518908,294.362885 403.268908,294.196219 C402.602241,293.612885 401.852241,293.029552 400.935574,292.696219 C400.518908,292.529552 400.102241,292.362885 399.602241,292.279552 L400.268908,292.279552 C403.602241,292.446219 406.935574,293.112885 410.268908,293.779552 C411.018908,293.946219 411.685574,293.446219 411.852241,292.779552 C411.935574,292.029552 411.518908,291.279552 410.768908,291.112885 L410.768908,291.112885 Z M389.018908,303.779552 C389.685574,303.779552 390.185574,304.279552 390.185574,304.946219 C390.185574,305.612885 389.685574,306.112885 389.018908,306.112885 C388.352241,306.112885 387.852241,305.612885 387.852241,304.946219 C387.852241,304.362885 388.352241,303.779552 389.018908,303.779552 L389.018908,303.779552 Z M379.852241,342.112885 C378.685574,342.112885 377.768908,341.196219 377.768908,340.029552 C377.768908,338.862885 378.685574,337.946219 379.852241,337.946219 C381.018908,337.946219 381.935574,338.862885 381.935574,340.029552 C381.935574,341.196219 381.018908,342.112885 379.852241,342.112885 L379.852241,342.112885 Z M385.185574,332.446219 C384.268908,332.446219 383.602241,331.696219 383.602241,330.862885 C383.602241,329.946219 384.352241,329.279552 385.185574,329.279552 C386.102241,329.279552 386.768908,330.029552 386.768908,330.862885 C386.768908,331.696219 386.102241,332.446219 385.185574,332.446219 L385.185574,332.446219 Z M398.518908,337.946219 C399.268908,337.946219 399.935574,338.612885 399.935574,339.362885 C399.935574,340.112885 399.268908,340.779552 398.518908,340.779552 C397.768908,340.779552 397.102241,340.112885 397.102241,339.362885 C397.185574,338.612885 397.768908,337.946219 398.518908,337.946219 L398.518908,337.946219 Z M391.685574,322.612885 C391.685574,323.946219 390.602241,325.029552 389.268908,325.029552 C387.935574,325.029552 386.852241,323.946219 386.852241,322.612885 C386.852241,321.279552 387.935574,320.196219 389.268908,320.196219 C390.602241,320.196219 391.685574,321.279552 391.685574,322.612885 L391.685574,322.612885 Z" id="Imported-Layers" sketch:type="MSShapeGroup"></path>
        </g>
    </g>
</svg>