<?xml version="1.0" encoding="UTF-8" standalone="no"?>
<svg width="56px" height="60px" viewBox="0 0 56 60" version="1.1" xmlns="http://www.w3.org/2000/svg" xmlns:xlink="http://www.w3.org/1999/xlink" xmlns:sketch="http://www.bohemiancoding.com/sketch/ns">
    <!-- Generator: Sketch 3.3.3 (12081) - http://www.bohemiancoding.com/sketch -->
    <title>Imported Layers</title>
    <desc>Created with Sketch.</desc>
    <defs></defs>
    <g id="Page-1" stroke="none" stroke-width="1" fill="none" fill-rule="evenodd" sketch:type="MSPage">
        <g id="Uso-de-suelo" sketch:type="MSArtboardGroup" transform="translate(-732.000000, -961.000000)" fill="#E6007E">
            <g id="Imported-Layers" sketch:type="MSLayerGroup" transform="translate(731.600000, 961.000000)">
                <path d="M19.1706,0 C14.0142,0 9.6018,1.836 5.9298,5.508 C2.2584,9.18 0.4194,13.5924 0.4194,18.7488 C0.4194,22.2642 1.0464,26.094 2.2962,30.2352 C3.624,34.2978 5.1858,38.046 6.9828,41.4828 C8.8578,44.8428 10.6944,47.9706 12.4914,50.8608 C14.3664,53.7522 15.9678,56.0154 17.2962,57.6552 L19.1706,60 C19.7172,59.3754 20.382,58.5186 21.1632,57.4248 C22.023,56.331 23.5092,54.1794 25.6188,50.9766 C27.2616,48.5124 28.749,46.092 30.0834,43.7166 L18.6018,47.1492 L24.4902,31.6488 L22.9344,29.397 C21.7662,29.7996 20.5116,30.0018 19.1712,30.0012 C16.0464,30.0012 13.3902,28.9068 11.2026,26.7192 C9.015,24.5316 7.9206,21.8736 7.9206,18.7488 C7.9206,15.6234 9.0144,12.9702 11.2026,10.7826 C13.3902,8.595 16.0458,7.4982 19.1712,7.4982 C22.296,7.4982 24.954,8.595 27.1416,10.7826 C29.3292,12.9702 30.4218,15.6234 30.4218,18.7488 L30.4218,18.7674 L31.6254,18.8262 L36.7536,12.1044 C35.8416,9.69 34.3962,7.4904 32.415,5.5074 C28.7412,1.836 24.327,0 19.1706,0" id="Fill-1" sketch:type="MSShapeGroup"></path>
                <path d="M40.2372,11.5296 L32.3688,21.8412 L19.4148,21.2046 L26.7888,31.872 L22.182,43.9968 L34.6068,40.281 L44.7138,48.4086 L45.0192,35.4438 L55.8714,28.3428 L43.6356,24.0468 L40.2372,11.5296" id="Fill-2" sketch:type="MSShapeGroup"></path>
            </g>
        </g>
    </g>
</svg>