<?xml version="1.0" encoding="utf-8"?>
<!-- Generator: Adobe Illustrator 19.0.0, SVG Export Plug-In . SVG Version: 6.00 Build 0)  -->
<svg version="1.1" id="Capa_1" xmlns="http://www.w3.org/2000/svg" xmlns:xlink="http://www.w3.org/1999/xlink" x="0px" y="0px"
	 viewBox="0 0 913.2 89.5" style="enable-background:new 0 0 913.2 89.5;" xml:space="preserve">
<style type="text/css">
	.st0{fill:#E5007E;}
	.st1{fill:#1D1D1B;}
</style>
<g id="XMLID_141_">
	<g id="XMLID_63_">
		<path id="XMLID_40_" d="M65.4,26.2L74.5,50c0.9,2.7,2,5.8,2.7,8.3h0.2c0.8-2.4,1.6-5.5,2.7-8.4l8.3-23.7h8L84.9,55
			c-5.4,13.8-9.1,20.9-14.3,25.3c-3.7,3.2-7.4,4.4-9.3,4.8l-1.9-6.2c1.9-0.6,4.4-1.8,6.6-3.6c2.1-1.6,4.6-4.4,6.4-8.2
			c0.3-0.8,0.6-1.3,0.6-1.8c0-0.4-0.2-1-0.5-1.9L57.1,26.2H65.4z"/>
		<path id="XMLID_37_" d="M140,46c0,14.9-10.7,21.4-20.7,21.4c-11.3,0-20-8-20-20.8c0-13.5,9.1-21.4,20.6-21.4
			C131.9,25.3,140,33.7,140,46z M106.9,46.5c0,8.8,5.2,15.5,12.6,15.5c7.2,0,12.6-6.6,12.6-15.7c0-6.8-3.5-15.5-12.5-15.5
			C110.8,30.8,106.9,38.8,106.9,46.5z"/>
		<path id="XMLID_35_" class="st0" d="M160.3,14.6v11.6h10.8v5.6h-10.8v21.8c0,5,1.5,7.8,5.7,7.8c2,0,3.4-0.3,4.4-0.5l0.3,5.5
			c-1.5,0.6-3.8,1-6.7,1c-3.5,0-6.4-1.1-8.2-3.1c-2.2-2.2-2.9-5.8-2.9-10.5v-22h-6.5v-5.6h6.5v-9.7L160.3,14.6z"/>
		<path id="XMLID_32_" class="st0" d="M183.4,47.7c0.2,9.9,6.7,14,14.3,14c5.4,0,8.7-0.9,11.5-2.1l1.3,5.3
			c-2.7,1.2-7.2,2.5-13.8,2.5c-12.8,0-20.5-8.2-20.5-20.4s7.4-21.8,19.5-21.8c13.6,0,17.2,11.6,17.2,19c0,1.5-0.2,2.7-0.3,3.4H183.4
			z M205.6,42.5c0.1-4.7-2-11.9-10.5-11.9c-7.7,0-11,6.8-11.6,11.9H205.6z"/>
		<path id="XMLID_75_" d="M223.9,28.2c4.8-2.2,9.3-3.3,13.5-3.3c3.2,0,5.9,0.5,8.3,1.6c2.3,1.1,4.3,2.8,5.9,5.2
			c1.6,2.4,2.4,5.5,2.4,9.2v13.6c0,3.9,0.8,7.9,2.5,11.8h-13.9c-0.5-1.1-0.9-2.4-1.3-3.8c-1.4,1.6-2.8,2.8-4.3,3.6
			c-1.5,0.8-3.1,1.2-4.7,1.2c-3.2,0-6.1-1.3-8.7-3.8c-2.6-2.5-3.8-5.6-3.8-9.1c0-8.1,7.2-13,21.6-14.8c-0.3-1.5-1.1-2.6-2.4-3.3
			c-1.3-0.7-3-1.1-5.2-1.1c-3.2,0-6.5,1.3-9.9,3.8V28.2z M241.3,46.2c-5.8,0.5-8.8,2.6-8.8,6.3c0,1.4,0.4,2.6,1.3,3.5
			c0.9,1,1.9,1.4,3.1,1.4c1.4,0,2.5-0.6,3.2-1.7c0.7-1.2,1.1-2.6,1.1-4.4V46.2z"/>
		<path id="XMLID_72_" d="M275.1,30.4c1.3-1.8,2.7-3.2,4.2-4.1c1.6-0.9,3.3-1.4,5.2-1.4c4.4,0,7.9,2,10.5,6.1
			c2.6,4.1,3.9,8.9,3.9,14.5c0,4.1-0.7,7.7-2,11c-1.3,3.3-3.2,5.9-5.5,7.8c-2.3,2-5,2.9-7.9,2.9c-1.4,0-2.8-0.3-4.1-0.8
			c-1.3-0.6-2.6-1.4-3.9-2.5v21.3h-13.7V25.8h11.9L275.1,30.4z M275.6,53.5c0.5,0.7,1.1,1.3,1.8,1.7c0.6,0.4,1.3,0.6,2.1,0.6
			c1.7,0,3-0.9,3.9-2.6c0.9-1.8,1.4-4.2,1.4-7.2c0-3.1-0.4-5.5-1.3-7.1c-0.9-1.6-2.1-2.5-3.5-2.5c-1.4,0-2.5,0.6-3.2,1.8
			c-0.7,1.2-1.1,3-1.1,5.5V53.5z"/>
		<path id="XMLID_69_" d="M323.2,24.9c5.7,0,10.5,1.8,14.1,5.5c3.7,3.7,5.5,8.8,5.5,15.5c0,6.3-1.8,11.4-5.3,15.4
			c-3.5,4-8.3,6-14.4,6c-6.1,0-10.8-2-14.2-5.9c-3.4-3.9-5.1-8.9-5.1-15c0-6.3,1.8-11.5,5.3-15.5C312.8,26.9,317.4,24.9,323.2,24.9z
			 M323.3,35.3c-1.7,0-3,0.9-3.9,2.7c-0.9,1.8-1.3,4.5-1.3,8.1c0,3.5,0.4,6.2,1.3,8c0.9,1.8,2.2,2.7,3.9,2.7c1.8,0,3.1-0.9,3.9-2.7
			c0.9-1.8,1.3-4.4,1.3-8c0-3.6-0.4-6.3-1.3-8.1C326.4,36.2,325.1,35.3,323.3,35.3z"/>
		<path id="XMLID_67_" d="M345.1,25.8H360l4.1,26.9l3.8-26.9h14.4L371,66.3c-1.7,6.3-3.3,10.6-4.6,12.8c-1.3,2.3-3,4-5,5.2
			c-2,1.2-4.3,1.8-6.7,1.8c-2.4,0-4.9-0.6-7.3-1.7V74c1.4,0.8,2.6,1.3,3.7,1.3c1.7,0,3-0.7,3.7-2c0.8-1.3,1.5-3.4,2.1-6.3
			L345.1,25.8z"/>
		<path id="XMLID_64_" d="M403,24.9c5.7,0,10.5,1.8,14.1,5.5c3.7,3.7,5.5,8.8,5.5,15.5c0,6.3-1.8,11.4-5.3,15.4c-3.5,4-8.3,6-14.4,6
			c-6.1,0-10.8-2-14.2-5.9c-3.4-3.9-5.1-8.9-5.1-15c0-6.3,1.8-11.5,5.3-15.5C392.6,26.9,397.2,24.9,403,24.9z M403.1,35.3
			c-1.7,0-3,0.9-3.9,2.7c-0.9,1.8-1.3,4.5-1.3,8.1c0,3.5,0.4,6.2,1.3,8c0.9,1.8,2.2,2.7,3.9,2.7c1.8,0,3.1-0.9,3.9-2.7
			c0.9-1.8,1.3-4.4,1.3-8c0-3.6-0.4-6.3-1.3-8.1C406.2,36.2,404.9,35.3,403.1,35.3z"/>
	</g>
	<g id="XMLID_1_">
		<path id="XMLID_2_" class="st0" d="M472.4,63.8l-0.6-4.9h-0.3c-2.3,3.1-6.8,5.8-12.8,5.8c-8.5,0-12.8-5.6-12.8-11.2
			c0-9.5,9-14.6,25.2-14.6v-0.8c0-3.2-1-9.1-9.5-9.1c-3.9,0-8,1.1-10.9,2.9l-1.7-4.7c3.5-2.1,8.5-3.5,13.8-3.5
			c12.8,0,15.9,8.2,15.9,16v14.6c0,3.4,0.2,6.7,0.7,9.4H472.4z M471.2,43.8c-8.3-0.2-17.7,1.2-17.7,8.8c0,4.6,3.3,6.8,7.2,6.8
			c5.4,0,8.9-3.2,10.1-6.5c0.3-0.7,0.4-1.5,0.4-2.3V43.8z"/>
		<path id="XMLID_5_" class="st0" d="M489.8,56.5c2.2,1.4,6.2,2.8,10,2.8c5.5,0,8.1-2.6,8.1-5.8c0-3.4-2.2-5.3-7.8-7.2
			c-7.5-2.5-11.1-6.4-11.1-11.1c0-6.3,5.4-11.5,14.4-11.5c4.2,0,8,1.1,10.3,2.4l-1.9,5.2c-1.6-1-4.7-2.3-8.6-2.3c-4.5,0-7,2.4-7,5.3
			c0,3.2,2.5,4.7,8,6.6c7.3,2.6,11,6,11,11.8c0,6.9-5.7,11.7-15.7,11.7c-4.6,0-8.8-1.1-11.8-2.7L489.8,56.5z"/>
		<path id="XMLID_7_" class="st0" d="M529.4,45.5c0.2,9.6,6.7,13.6,14.4,13.6c5.4,0,8.7-0.9,11.6-2l1.3,5.1
			c-2.7,1.1-7.3,2.4-13.9,2.4c-12.9,0-20.6-7.9-20.6-19.7c0-11.8,7.4-21.1,19.6-21.1c13.7,0,17.3,11.2,17.3,18.4
			c0,1.5-0.2,2.6-0.3,3.3H529.4z M551.7,40.4c0.1-4.5-2-11.6-10.6-11.6c-7.7,0-11.1,6.6-11.7,11.6H551.7z"/>
		<path id="XMLID_10_" class="st0" d="M567.4,56.5c2.2,1.4,6.2,2.8,10,2.8c5.5,0,8.1-2.6,8.1-5.8c0-3.4-2.2-5.3-7.8-7.2
			c-7.5-2.5-11.1-6.4-11.1-11.1c0-6.3,5.4-11.5,14.4-11.5c4.2,0,8,1.1,10.3,2.4l-1.9,5.2c-1.6-1-4.7-2.3-8.6-2.3c-4.5,0-7,2.4-7,5.3
			c0,3.2,2.5,4.7,8,6.6c7.3,2.6,11,6,11,11.8c0,6.9-5.7,11.7-15.7,11.7c-4.6,0-8.8-1.1-11.8-2.7L567.4,56.5z"/>
		<path id="XMLID_12_" class="st0" d="M640.6,43.9c0,14.5-10.7,20.8-20.8,20.8c-11.3,0-20.1-7.8-20.1-20.1
			c0-13.1,9.2-20.8,20.8-20.8C632.5,23.8,640.6,31.9,640.6,43.9z M607.4,44.3c0,8.6,5.3,15,12.7,15c7.3,0,12.7-6.4,12.7-15.2
			c0-6.6-3.5-15-12.5-15C611.3,29.1,607.4,36.9,607.4,44.3z"/>
		<path id="XMLID_15_" class="st0" d="M650.2,36.9c0-4.6-0.1-8.6-0.3-12.2h6.7l0.3,7.7h0.3c1.9-5.3,6.5-8.6,11.6-8.6
			c0.9,0,1.5,0.1,2.2,0.2v6.7c-0.8-0.2-1.6-0.2-2.6-0.2c-5.4,0-9.2,3.8-10.2,9.1c-0.2,1-0.3,2.1-0.3,3.3v20.9h-7.5V36.9z"/>
	</g>
	<g id="XMLID_31_">
		<path id="XMLID_34_" class="st0" d="M693.7,23.6l3.7,18.4c0.7,3.7,1.4,7.4,2.1,11.5h0.2c0.6-4.2,1.2-7.7,1.9-11.5l3.8-18.4h12.9
			l-13.1,41.2h-12.1l-13.3-41.2H693.7z"/>
		<path id="XMLID_38_" class="st0" d="M736.5,12.6c0.1,3.5-2.9,6-6.9,6c-3.6,0-6.6-2.4-6.5-6c-0.1-3.7,3.1-6,6.7-6
			C733.6,6.7,736.5,8.9,736.5,12.6z M723.4,64.8V23.6h13.1v41.2H723.4z"/>
		<path id="XMLID_42_" class="st0" d="M745.6,36c0-4.1-0.2-8.6-0.4-12.4h11.4l0.7,6h0.3c2.2-4.4,6.1-6.7,9.7-6.7c1.3,0,2,0,2.8,0.2
			V34c-0.8-0.2-1.7-0.2-2.8-0.2c-2.8,0-6.5,1.6-8,5.9c-0.3,0.9-0.5,2.4-0.5,4.1v20.9h-13.2V36z"/>
		<path id="XMLID_44_" class="st0" d="M792.2,12.5v11.1h9.6v7.8h-9.6v18.8c0,4.8,2.4,6,5,6c1.3,0,2.3-0.1,3.4-0.3l0.1,8.6
			c-1.8,0.4-4.5,0.8-8,0.8c-3.8,0-7.1-0.8-9.4-2.6c-2.7-2.2-4.2-5.3-4.2-11.8V31.4h-5.8v-7.8h5.8v-8.5L792.2,12.5z"/>
		<path id="XMLID_46_" class="st0" d="M843.7,52.2c0,4.4,0.2,8.7,0.4,12.5h-11.3l-0.7-4.4h-0.2c-2.3,2.8-6.3,5.1-11.3,5.1
			c-9.3,0-13.1-5.8-13.1-16.9V23.6h13.2v23.7c0,5.4,1.2,8.8,4.9,8.8c2.2,0,3.6-1.4,4.2-2.8c0.5-0.8,0.8-2.1,0.8-3.5V23.6h13.1V52.2z
			"/>
		<path id="XMLID_48_" class="st0" d="M874.9,64.8l-0.7-4H874c-2.7,3.2-6.5,4.7-10.8,4.7c-7.4,0-12.9-5.2-12.9-12.5
			c0-10.8,11.3-15.2,22.4-15.3v-0.9c0-3.2-2.3-5.6-6.9-5.6c-3.9,0-7.1,0.8-10,2.4l-2.4-7.4c2.7-1.4,8.4-3.1,15.2-3.1
			c14.9,0,17.3,8.8,17.3,17.1v15.3c0,3.3,0.2,6.7,0.8,9.4H874.9z M873.1,44.7c-4.4,0.1-10.4,1.3-10.4,7c0,4.1,2.7,5.6,4.7,5.6
			c2.1,0,4.5-1.1,5.4-3.5c0.2-0.6,0.3-1.3,0.3-1.9V44.7z"/>
		<path id="XMLID_51_" class="st0" d="M895.2,6.5h13.1v58.3h-13.1V6.5z"/>
	</g>
	<g id="XMLID_20_">
		<path id="XMLID_21_" class="st1" d="M429.2,36.7c0-3,2-5,4.9-5s4.8,2,4.9,5c0,2.8-2,5-4.9,5C431.3,41.7,429.2,39.5,429.2,36.7z
			 M429.2,54.4c0-2.9,2-5,4.9-5s4.8,2.1,4.9,5c0,2.9-2,5-4.9,5C431.3,59.4,429.2,57.3,429.2,54.4z"/>
	</g>
	<g id="XMLID_183_">
		<path id="XMLID_188_" class="st0" d="M17.1,69.5c-1.7,0-3.4,0-5,0c-0.4,0-0.8-0.2-1.2-0.3c-0.2-0.1-0.5-0.3-0.7-0.3
			c-1.8-0.2-3.2-1.3-4.4-2.5c-1.3-1.2-2.5-2.5-3.4-4.2c-1-2-1.2-4.1-1.3-6.2c-0.1-2.8,0-5.5-0.1-8.3c0-1.3-0.2-2.6-0.1-3.9
			c0-1.9,0-3.9,0.2-5.8c0.1-0.8,0.4-1.6,0.7-2.3c0.8-1.8,1.8-3.4,3.3-4.7c0.2-0.2,0.4-0.3,0.6-0.5c2.4-1.5,4.3-3.5,6.2-5.5
			c2.6-2.7,5.1-5.6,7.6-8.4c0.1-0.2,0.3-0.3,0.4-0.5c1.1-2,2.3-3.9,3.3-5.9c0.3-0.7,0.3-1.6,0.4-2.5c0-1-0.1-1.9-0.1-2.9
			c0-1,0.3-1.4,1.3-1.4c0.4,0,0.8,0,1.1-0.1c1.4-0.4,2.6,0.2,3.7,0.8c0.8,0.4,1.5,1.4,1.9,2.3c0.8,1.9,1.4,4,1,6.1
			c0,0.1,0,0.2,0,0.3c0.2,2.1-0.5,4.2-1.1,6.2c-0.4,1.2-0.9,2.3-1.4,3.5c-0.5,1.1-1.2,2.1-1.7,3.2c-0.4,0.9-1.1,1.2-2,1.3
			c-0.3,0-0.5,0-0.8,0c-2-0.2-3.1,0.9-4.1,2.5c-0.9,1.5-0.9,3-0.7,4.6c0.1,0.9,0.3,1.8,0.5,2.7c0.1,0.5,0,0.9-0.4,1.2
			c-1.6,1-2.2,2.6-2.4,4.3c-0.2,1.5-0.1,3,0.3,4.5c0.3,1.1,0.9,1.9,1.9,2.5c1.1,0.6,1.1,0.8,0.6,1.9c-0.5,1-0.8,2.1-0.7,3.2
			c0.1,1.4,0.2,2.8,1,4.1c0.4,0.7,1,1.2,1.6,1.7c1,0.8,1.1,1,0.3,2c-0.2,0.2-0.4,0.5-0.4,0.8c-0.2,1.7-0.4,3.3,0.2,5
			c0.4,1.2,0.2,1.4-1,1.4C20.5,69.5,18.8,69.5,17.1,69.5C17.1,69.5,17.1,69.5,17.1,69.5z"/>
		<path id="XMLID_187_" class="st0" d="M34,47.9c-1.9,0-3.8,0-5.7,0c-1.6,0-3.2,0-4.8,0c-2,0-2.3,0-3-1.9c-0.7-1.8-0.7-3.7,0.5-5.4
			c0.5-0.8,1.2-1.1,2.1-1.1c3.4,0,6.7,0,10.1,0c2.4,0,4.8-0.1,7.2-0.2c1.6,0,2.9,1.4,2.7,2.9c0,0.6,0,1.2,0,1.7c0,0.5,0,1.1-0.1,1.6
			c-0.2,1.5-0.9,2.1-2.4,2.1c-2.2,0-4.4,0-6.5,0C34,47.8,34,47.8,34,47.9z"/>
		<path id="XMLID_186_" class="st0" d="M32.2,58.7c-2.1,0-4.3-0.1-6.4,0c-1.6,0.1-3-1.2-2.9-2.9c0.1-0.9,0-1.8,0-2.8
			c0-1.4,1-2.8,2.8-2.8c3.8,0,7.6-0.1,11.5-0.2c0.8,0,1.5-0.1,2.3,0c1.1,0,2.5,1.1,2.5,2.2c0,1.4,0.3,2.8-0.2,4.2
			c-0.5,1.4-1.3,2.1-2.9,2.1C36.5,58.7,34.4,58.7,32.2,58.7C32.2,58.7,32.2,58.7,32.2,58.7z"/>
		<path id="XMLID_185_" class="st0" d="M37.2,37.2c-1,0.1-2,0.2-3,0.2c-2.9,0-5.8,0-8.7,0c-1.6,0-2.4-0.9-2.8-2.5
			c-0.3-1.3,0-2.5,0.1-3.7c0.1-1,1.3-2.1,2.3-2.1c4.4-0.1,8.7-0.2,13.1-0.3c0.2,0,0.3,0,0.5,0c1.1,0.1,1.7,0.5,1.9,1.5
			c0.3,1.7,0.6,3.4,0.2,5.1c-0.3,1.2-0.8,1.7-2,1.8C38.3,37.3,37.7,37.3,37.2,37.2C37.2,37.3,37.2,37.2,37.2,37.2z"/>
		<path id="XMLID_184_" class="st0" d="M31.8,61.2c1.3,0,2.7,0,4,0c0.7,0,1.1,0.3,1.5,0.9c1.3,1.8,0.8,3.8,0.5,5.7
			c-0.1,0.9-0.9,1.5-1.9,1.6c-0.7,0.1-1.3,0.1-2,0.1c-2.1,0-4.2,0-6.3,0c-1.6,0-2.1-0.4-2.3-2c-0.2-1.1-0.3-2.3-0.3-3.4
			c0-0.3,0-0.7,0.1-1c0.7-1.4,0.7-1.8,2.5-1.9C29.1,61.3,30.5,61.3,31.8,61.2C31.8,61.3,31.8,61.2,31.8,61.2z"/>
	</g>
</g>
</svg>
