<?xml version="1.0" encoding="utf-8"?>
<!-- Generator: Adobe Illustrator 19.0.0, SVG Export Plug-In . SVG Version: 6.00 Build 0)  -->
<svg version="1.1" id="Capa_1" xmlns="http://www.w3.org/2000/svg" xmlns:xlink="http://www.w3.org/1999/xlink" x="0px" y="0px"
	 viewBox="0 0 1239.8 105.5" style="enable-background:new 0 0 1239.8 105.5;" xml:space="preserve">
<style type="text/css">
	.st0{fill:#E5007E;}
	.st1{fill:#1D1D1B;}
</style>
<g id="XMLID_99_">
	<g id="XMLID_27_">
		<g id="XMLID_367_">
			<path id="XMLID_399_" class="st0" d="M115.9,87.6h-14.2l-3.4-9.8H77.4l-3.4,9.8H59.8L80.7,33h14.4L115.9,87.6z M81,67.4h13.8
				l-6.9-20.2L81,67.4z"/>
			<path id="XMLID_397_" class="st0" d="M126.4,71.4c1.2,0.7,2.5,1.9,7.9,3.8c2.6,1,5.1,1.5,7.3,1.5c4,0,6-1.5,6-4.6
				c0-2.9-1.8-4.4-9.4-6.6c-12.1-3.6-18-8.2-18-16.8c0-10.3,7.2-16.9,21.1-16.9c8.7,0,16.2,2.5,18.7,4.4l1.9,1.5l-7.1,10.7
				c-0.8-0.7-1.8-1.5-6.6-3.3c-2.3-0.8-4.6-1.3-6.9-1.3c-3.9,0-5.9,1.4-5.9,4c0,2.6,2,3.7,8.7,5.6c12.7,3.6,19,8.5,19,17.2
				c0,10.6-7.3,18.1-21,18.1c-4.5,0-8.7-0.6-12.5-1.8c-3.7-1.2-6.5-2.5-8-3.6l-2.4-1.8L126.4,71.4z"/>
			<path id="XMLID_395_" class="st0" d="M207.4,65.1h-22.2v11.1h26.5v11.4H172V33h39.7v11.4h-26.5v10.4h22.2V65.1z"/>
			<path id="XMLID_393_" class="st0" d="M225.1,71.4c1.2,0.7,2.5,1.9,7.9,3.8c2.6,1,5.1,1.5,7.3,1.5c4,0,6-1.5,6-4.6
				c0-2.9-1.8-4.4-9.4-6.6c-12.1-3.6-18-8.2-18-16.8c0-10.3,7.2-16.9,21.1-16.9c8.7,0,16.2,2.5,18.7,4.4l1.9,1.5l-7.1,10.7
				c-0.8-0.7-1.8-1.5-6.6-3.3c-2.3-0.8-4.6-1.3-6.9-1.3c-3.9,0-5.9,1.4-5.9,4c0,2.6,2,3.7,8.7,5.6c12.7,3.6,19,8.5,19,17.2
				c0,10.6-7.3,18.1-21,18.1c-4.5,0-8.7-0.6-12.5-1.8c-3.7-1.2-6.5-2.5-8-3.6l-2.4-1.8L225.1,71.4z"/>
			<path id="XMLID_390_" class="st0" d="M275.1,80.6c-5.2-5.6-7.8-12.4-7.8-20.3c0-7.9,2.6-14.7,7.8-20.2c5.3-5.6,12-8.3,20.1-8.3
				c8.2,0,14.9,2.7,20.2,8.3c5.3,5.6,7.9,12.3,7.9,20.2c0,7.9-2.6,14.8-7.9,20.3c-5.3,5.6-12,8.3-20.2,8.3
				C287.1,88.9,280.3,86.2,275.1,80.6z M305.5,71.7c2.8-2.9,4.2-6.7,4.2-11.4c0-4.6-1.4-8.5-4.2-11.4c-2.7-2.9-6.2-4.4-10.3-4.4
				c-4.1,0-7.5,1.5-10.2,4.4c-2.7,2.9-4.1,6.7-4.1,11.4c0,4.6,1.4,8.5,4.1,11.4c2.7,2.9,6.1,4.4,10.2,4.4
				C299.3,76.1,302.7,74.6,305.5,71.7z"/>
			<path id="XMLID_387_" class="st0" d="M356.3,33c6.2,0,11.2,1.7,15.1,5.2c3.9,3.5,5.9,7.8,5.9,13.2c0,7.4-3.7,13.3-10.2,16.2v1
				l12.3,18.1v0.9h-15L353,69.7h-7.6v17.9h-13.2V33H356.3z M355.4,44.4h-10v14.1h10.1c4.8,0,8.2-2.6,8.2-7.1
				C363.7,46.7,360.4,44.4,355.4,44.4z"/>
			<path id="XMLID_385_" class="st0" d="M421.7,62.9h-27.3v18.8h32v5.9H388V33h38.3v5.9h-32V57h27.3V62.9z"/>
			<path id="XMLID_383_" class="st0" d="M482.1,87.6h-4.6l-34.7-43.3v43.3h-6.4V33h4.6l34.6,43.2V33h6.4V87.6z"/>
			<path id="XMLID_381_" class="st0" d="M496,87.6V33h13.2v43.3h24.4v11.4H496z"/>
			<path id="XMLID_378_" class="st0" d="M554,87.6h-13.2V33H554V87.6z M551.6,29.8h-8.4l4.4-13.2l14.8,1.2L551.6,29.8z"/>
			<path id="XMLID_376_" class="st0" d="M615.6,87.6h-10.2l-26.2-31.9v31.9h-13.1V33h10.2l26.2,31.3V33h13.1V87.6z"/>
			<path id="XMLID_374_" class="st0" d="M663.1,65.1h-22.2v11.1h26.5v11.4h-39.7V33h39.7v11.4h-26.5v10.4h22.2V65.1z"/>
			<path id="XMLID_371_" class="st0" d="M728.1,87.6h-14.2l-3.4-9.8h-20.9l-3.4,9.8H672L692.9,33h14.4L728.1,87.6z M693.1,67.4H707
				l-6.9-20.2L693.1,67.4z"/>
			<path id="XMLID_368_" class="st1" d="M736.9,45.7c2.1,0,3.6,1.5,3.6,3.6c0,1.9-1.5,3.5-3.6,3.5c-2.1,0-3.6-1.6-3.6-3.5
				C733.3,47.2,734.8,45.7,736.9,45.7z M736.9,72.2c2.1,0,3.6,1.5,3.6,3.6c0,1.9-1.5,3.5-3.6,3.5c-2.1,0-3.6-1.6-3.6-3.5
				C733.3,73.7,734.8,72.2,736.9,72.2z"/>
		</g>
	</g>
	<g id="XMLID_1_">
		<path id="XMLID_2_" class="st1" d="M782.3,33h14.2l-19.1,33.4v21.2h-13.2v-21L745,33h14.2l9.2,16.6l2.4,5.6l2.4-5.6L782.3,33z"/>
		<path id="XMLID_4_" class="st1" d="M803.3,80.6c-5.2-5.6-7.8-12.4-7.8-20.3c0-7.9,2.6-14.7,7.8-20.2c5.3-5.6,12-8.3,20.1-8.3
			c8.2,0,14.9,2.7,20.2,8.3c5.3,5.6,7.9,12.3,7.9,20.2c0,7.9-2.6,14.8-7.9,20.3c-5.3,5.6-12,8.3-20.2,8.3
			C815.3,88.9,808.6,86.2,803.3,80.6z M833.7,71.7c2.8-2.9,4.2-6.7,4.2-11.4c0-4.6-1.4-8.5-4.2-11.4c-2.7-2.9-6.2-4.4-10.3-4.4
			c-4.1,0-7.5,1.5-10.2,4.4c-2.7,2.9-4.1,6.7-4.1,11.4c0,4.6,1.4,8.5,4.1,11.4c2.7,2.9,6.1,4.4,10.2,4.4
			C827.5,76.1,831,74.6,833.7,71.7z"/>
		<path id="XMLID_7_" class="st1" d="M853.3,33H896v5.9h-18.2v48.7h-6.4V38.9h-18.1V33z"/>
		<path id="XMLID_9_" class="st1" d="M938.8,62.9h-27.3v18.8h32v5.9h-38.3V33h38.3v5.9h-32V57h27.3V62.9z"/>
		<path id="XMLID_11_" class="st1" d="M1005.6,87.6h-14.2l-3.4-9.8h-20.9l-3.4,9.8h-14.2L970.4,33h14.4L1005.6,87.6z M970.7,67.4
			h13.8l-6.9-20.2L970.7,67.4z"/>
		<path id="XMLID_16_" class="st1" d="M1050.6,38.2c3.9,3.5,5.9,7.8,5.9,13.2c0,5.6-1.9,10-5.8,13.4c-3.8,3.3-8.9,4.9-15.2,4.9
			h-10.9v17.9h-13.2V33h24.1C1041.7,33,1046.7,34.7,1050.6,38.2z M1034.6,44.4h-10v14.1h10.1c4.8,0,8.2-2.6,8.2-7.1
			C1042.9,46.7,1039.6,44.4,1034.6,44.4z"/>
		<path id="XMLID_19_" class="st1" d="M1069.7,80.6c-5.2-5.6-7.8-12.4-7.8-20.3c0-7.9,2.6-14.7,7.8-20.2c5.3-5.6,12-8.3,20.1-8.3
			c8.2,0,14.9,2.7,20.2,8.3s7.9,12.3,7.9,20.2c0,7.9-2.6,14.8-7.9,20.3c-5.3,5.6-12,8.3-20.2,8.3C1081.7,88.9,1075,86.2,1069.7,80.6
			z M1100.1,71.7c2.8-2.9,4.2-6.7,4.2-11.4c0-4.6-1.4-8.5-4.2-11.4c-2.7-2.9-6.2-4.4-10.3-4.4c-4.1,0-7.5,1.5-10.2,4.4
			c-2.7,2.9-4.1,6.7-4.1,11.4c0,4.6,1.4,8.5,4.1,11.4c2.7,2.9,6.1,4.4,10.2,4.4C1093.9,76.1,1097.4,74.6,1100.1,71.7z"/>
		<path id="XMLID_22_" class="st1" d="M1154.3,33h14.2l-19.1,33.4v21.2h-13.2v-21L1116.9,33h14.2l9.2,16.6l2.4,5.6l2.4-5.6
			L1154.3,33z"/>
		<path id="XMLID_24_" class="st1" d="M1175.2,80.6c-5.2-5.6-7.8-12.4-7.8-20.3c0-7.9,2.6-14.7,7.8-20.2c5.3-5.6,12-8.3,20.1-8.3
			c8.2,0,14.9,2.7,20.2,8.3c5.3,5.6,7.9,12.3,7.9,20.2c0,7.9-2.6,14.8-7.9,20.3c-5.3,5.6-12,8.3-20.2,8.3
			C1187.3,88.9,1180.5,86.2,1175.2,80.6z M1205.7,71.7c2.8-2.9,4.2-6.7,4.2-11.4c0-4.6-1.4-8.5-4.2-11.4c-2.7-2.9-6.2-4.4-10.3-4.4
			c-4.1,0-7.5,1.5-10.2,4.4c-2.7,2.9-4.1,6.7-4.1,11.4c0,4.6,1.4,8.5,4.1,11.4c2.7,2.9,6.1,4.4,10.2,4.4
			C1199.5,76.1,1202.9,74.6,1205.7,71.7z"/>
	</g>
	<g id="XMLID_207_">
		<path id="XMLID_332_" class="st0" d="M29.2,86.7c-1.3,0-2.7,0-4,0c-0.3,0-0.6-0.1-1-0.2c-0.2-0.1-0.4-0.2-0.6-0.2
			c-1.5-0.2-2.5-1.1-3.5-2c-1.1-0.9-2-2-2.7-3.3c-0.8-1.6-1-3.3-1-5c-0.1-2.2,0-4.4,0-6.6c0-1-0.1-2.1-0.1-3.1c0-1.5,0-3.1,0.2-4.6
			c0-0.6,0.3-1.2,0.6-1.8c0.6-1.4,1.4-2.7,2.6-3.7c0.2-0.1,0.3-0.3,0.5-0.4c1.9-1.2,3.4-2.8,4.9-4.4c2.1-2.2,4.1-4.4,6.1-6.7
			c0.1-0.1,0.2-0.2,0.3-0.4c0.9-1.6,1.8-3.1,2.6-4.7c0.3-0.6,0.3-1.3,0.3-2c0-0.8-0.1-1.5-0.1-2.3c0-0.8,0.2-1.1,1-1.2
			c0.3,0,0.6,0,0.9-0.1c1.1-0.3,2.1,0.2,3,0.7c0.6,0.3,1.2,1.1,1.5,1.8c0.6,1.5,1.1,3.2,0.8,4.9c0,0.1,0,0.1,0,0.2
			c0.1,1.7-0.4,3.3-0.8,4.9c-0.3,1-0.7,1.9-1.2,2.8c-0.4,0.9-0.9,1.7-1.3,2.6c-0.3,0.7-0.9,1-1.6,1c-0.2,0-0.4,0-0.6,0
			c-1.6-0.1-2.5,0.7-3.3,2c-0.7,1.2-0.7,2.4-0.6,3.7c0.1,0.7,0.3,1.4,0.4,2.1c0.1,0.4,0,0.7-0.3,0.9c-1.3,0.8-1.7,2-1.9,3.5
			c-0.1,1.2-0.1,2.4,0.2,3.6c0.2,0.9,0.7,1.5,1.5,2c0.8,0.5,0.9,0.7,0.5,1.5c-0.4,0.8-0.7,1.6-0.6,2.6c0.1,1.1,0.2,2.2,0.8,3.3
			c0.3,0.6,0.8,1,1.3,1.3c0.8,0.6,0.8,0.8,0.2,1.6c-0.1,0.2-0.3,0.4-0.3,0.6c-0.2,1.3-0.3,2.7,0.2,4c0.3,0.9,0.2,1.1-0.8,1.1
			C31.8,86.7,30.5,86.7,29.2,86.7C29.2,86.7,29.2,86.7,29.2,86.7z"/>
		<path id="XMLID_327_" class="st0" d="M42.6,69.4c-1.5,0-3,0-4.5,0c-1.3,0-2.5,0-3.8,0c-1.6,0-1.8,0-2.4-1.5
			c-0.5-1.4-0.6-2.9,0.4-4.3c0.4-0.6,1-0.9,1.7-0.8c2.7,0,5.3,0,8,0c1.9,0,3.8-0.1,5.7-0.1c1.2,0,2.3,1.1,2.2,2.3c0,0.5,0,0.9,0,1.4
			c0,0.4,0,0.9-0.1,1.3c-0.2,1.2-0.7,1.7-1.9,1.7c-1.7,0-3.5,0-5.2,0C42.6,69.4,42.6,69.4,42.6,69.4z"/>
		<path id="XMLID_326_" class="st0" d="M41.1,78.1c-1.7,0-3.4-0.1-5.1,0c-1.3,0.1-2.4-1-2.3-2.3c0-0.7,0-1.5,0-2.2
			c0-1.1,0.8-2.2,2.2-2.2c3,0,6.1-0.1,9.1-0.2c0.6,0,1.2-0.1,1.8,0c0.9,0,2,0.9,2,1.8c0,1.1,0.2,2.2-0.2,3.4
			c-0.4,1.1-1.1,1.7-2.3,1.7C44.6,78,42.9,78,41.1,78.1C41.1,78,41.1,78.1,41.1,78.1z"/>
		<path id="XMLID_323_" class="st0" d="M45.1,60.9c-0.8,0.1-1.6,0.2-2.4,0.2c-2.3,0-4.6,0-6.9,0c-1.3,0-1.9-0.7-2.2-2
			c-0.3-1,0-2,0.1-3c0.1-0.8,1.1-1.7,1.9-1.7c3.5-0.1,6.9-0.1,10.4-0.2c0.1,0,0.3,0,0.4,0c0.9,0.1,1.3,0.4,1.5,1.2
			c0.3,1.3,0.5,2.7,0.1,4.1c-0.2,0.9-0.6,1.3-1.6,1.4C46,61,45.6,61,45.1,60.9C45.1,61,45.1,61,45.1,60.9z"/>
		<path id="XMLID_316_" class="st0" d="M40.9,80c1.1,0,2.1,0,3.2,0c0.6,0,0.9,0.2,1.2,0.7c1,1.4,0.7,3,0.4,4.5
			c-0.1,0.7-0.7,1.2-1.5,1.3c-0.5,0.1-1.1,0.1-1.6,0.1c-1.7,0-3.3,0-5,0c-1.3,0-1.7-0.3-1.8-1.6c-0.1-0.9-0.2-1.8-0.3-2.7
			c0-0.3,0-0.6,0.1-0.8c0.5-1.1,0.5-1.4,2-1.5C38.7,80.1,39.8,80.1,40.9,80C40.9,80.1,40.9,80.1,40.9,80z"/>
	</g>
</g>
</svg>
