<?xml version="1.0" encoding="utf-8"?>
<!-- Generator: Adobe Illustrator 19.0.0, SVG Export Plug-In . SVG Version: 6.00 Build 0)  -->
<svg version="1.1" id="Capa_1" xmlns="http://www.w3.org/2000/svg" xmlns:xlink="http://www.w3.org/1999/xlink" x="0px" y="0px"
	 viewBox="0 0 1024 143.4" style="enable-background:new 0 0 1024 143.4;" xml:space="preserve">
<style type="text/css">
	.st0{fill:#E5007E;}
	.st1{fill:#1D1D1B;}
</style>
<g id="XMLID_63_">
	<path id="XMLID_40_" d="M122.6,52.3l9.1,23.9c0.9,2.7,2,5.8,2.7,8.3h0.2c0.8-2.4,1.6-5.5,2.7-8.4l8.3-23.7h8L142.1,81
		c-5.4,13.8-9.1,20.9-14.3,25.3c-3.7,3.2-7.4,4.4-9.3,4.8l-1.9-6.2c1.9-0.6,4.4-1.8,6.6-3.6c2.1-1.6,4.6-4.4,6.4-8.2
		c0.3-0.8,0.6-1.3,0.6-1.8c0-0.4-0.2-1-0.5-1.9l-15.4-37.2H122.6z"/>
	<path id="XMLID_37_" d="M197.2,72.1c0,14.9-10.7,21.4-20.7,21.4c-11.3,0-20-8-20-20.8c0-13.5,9.1-21.4,20.6-21.4
		C189.1,51.3,197.2,59.8,197.2,72.1z M164.1,72.5c0,8.8,5.2,15.5,12.6,15.5c7.2,0,12.6-6.6,12.6-15.7c0-6.8-3.5-15.5-12.5-15.5
		C168,56.8,164.1,64.9,164.1,72.5z"/>
	<path id="XMLID_35_" class="st0" d="M217.5,40.7v11.6h10.8v5.6h-10.8v21.8c0,5,1.5,7.8,5.7,7.8c2,0,3.4-0.3,4.4-0.5l0.3,5.5
		c-1.5,0.6-3.8,1-6.7,1c-3.5,0-6.4-1.1-8.2-3.1c-2.2-2.2-2.9-5.8-2.9-10.5v-22h-6.5v-5.6h6.5v-9.7L217.5,40.7z"/>
	<path id="XMLID_32_" class="st0" d="M240.6,73.8c0.2,9.9,6.7,14,14.3,14c5.4,0,8.7-0.9,11.5-2.1l1.3,5.3c-2.7,1.2-7.2,2.5-13.8,2.5
		c-12.8,0-20.5-8.2-20.5-20.4s7.4-21.8,19.5-21.8c13.6,0,17.2,11.6,17.2,19c0,1.5-0.2,2.7-0.3,3.4H240.6z M262.8,68.5
		c0.1-4.7-2-11.9-10.5-11.9c-7.7,0-11,6.8-11.6,11.9H262.8z"/>
	<path id="XMLID_75_" d="M281.1,54.2c4.8-2.2,9.3-3.3,13.5-3.3c3.2,0,5.9,0.5,8.3,1.6c2.3,1.1,4.3,2.8,5.9,5.2
		c1.6,2.4,2.4,5.5,2.4,9.2v13.6c0,3.9,0.8,7.9,2.5,11.8h-13.9c-0.5-1.1-0.9-2.4-1.3-3.8c-1.4,1.6-2.8,2.8-4.3,3.6
		c-1.5,0.8-3.1,1.2-4.7,1.2c-3.2,0-6.1-1.3-8.7-3.8c-2.6-2.5-3.8-5.6-3.8-9.1c0-8.1,7.2-13,21.6-14.8c-0.3-1.5-1.1-2.6-2.4-3.3
		c-1.3-0.7-3-1.1-5.2-1.1c-3.2,0-6.5,1.3-9.9,3.8V54.2z M298.5,72.3c-5.8,0.5-8.8,2.6-8.8,6.3c0,1.4,0.4,2.6,1.3,3.5
		c0.9,1,1.9,1.4,3.1,1.4c1.4,0,2.5-0.6,3.2-1.7c0.7-1.2,1.1-2.6,1.1-4.4V72.3z"/>
	<path id="XMLID_72_" d="M332.3,56.4c1.3-1.8,2.7-3.2,4.2-4.1c1.6-0.9,3.3-1.4,5.2-1.4c4.4,0,7.9,2,10.5,6.1
		c2.6,4.1,3.9,8.9,3.9,14.5c0,4.1-0.7,7.7-2,11c-1.3,3.3-3.2,5.9-5.5,7.8c-2.3,2-5,2.9-7.9,2.9c-1.4,0-2.8-0.3-4.1-0.8
		c-1.3-0.6-2.6-1.4-3.9-2.5v21.3h-13.7V51.9h11.9L332.3,56.4z M332.8,79.5c0.5,0.7,1.1,1.3,1.8,1.7c0.6,0.4,1.3,0.6,2.1,0.6
		c1.7,0,3-0.9,3.9-2.6c0.9-1.8,1.4-4.2,1.4-7.2c0-3.1-0.4-5.5-1.3-7.1c-0.9-1.6-2.1-2.5-3.5-2.5c-1.4,0-2.5,0.6-3.2,1.8
		c-0.7,1.2-1.1,3-1.1,5.5V79.5z"/>
	<path id="XMLID_69_" d="M380.4,51c5.7,0,10.5,1.8,14.1,5.5c3.7,3.7,5.5,8.8,5.5,15.5c0,6.3-1.8,11.4-5.3,15.4c-3.5,4-8.3,6-14.4,6
		c-6.1,0-10.8-2-14.2-5.9c-3.4-3.9-5.1-8.9-5.1-15c0-6.3,1.8-11.5,5.3-15.5C370,52.9,374.7,51,380.4,51z M380.6,61.3
		c-1.7,0-3,0.9-3.9,2.7c-0.9,1.8-1.3,4.5-1.3,8.1c0,3.5,0.4,6.2,1.3,8c0.9,1.8,2.2,2.7,3.9,2.7c1.8,0,3.1-0.9,3.9-2.7
		c0.9-1.8,1.3-4.4,1.3-8c0-3.6-0.4-6.3-1.3-8.1C383.6,62.2,382.3,61.3,380.6,61.3z"/>
	<path id="XMLID_67_" d="M402.3,51.9h14.8l4.1,26.9l3.8-26.9h14.4l-11.2,40.5c-1.7,6.3-3.3,10.6-4.6,12.8c-1.3,2.3-3,4-5,5.2
		c-2,1.2-4.3,1.8-6.7,1.8c-2.4,0-4.9-0.6-7.3-1.7v-10.4c1.4,0.8,2.6,1.3,3.7,1.3c1.7,0,3-0.7,3.7-2c0.8-1.3,1.5-3.4,2.1-6.3
		L402.3,51.9z"/>
	<path id="XMLID_64_" d="M460.2,51c5.7,0,10.5,1.8,14.1,5.5c3.7,3.7,5.5,8.8,5.5,15.5c0,6.3-1.8,11.4-5.3,15.4c-3.5,4-8.3,6-14.4,6
		c-6.1,0-10.8-2-14.2-5.9c-3.4-3.9-5.1-8.9-5.1-15c0-6.3,1.8-11.5,5.3-15.5C449.8,52.9,454.5,51,460.2,51z M460.4,61.3
		c-1.7,0-3,0.9-3.9,2.7c-0.9,1.8-1.3,4.5-1.3,8.1c0,3.5,0.4,6.2,1.3,8c0.9,1.8,2.2,2.7,3.9,2.7c1.8,0,3.1-0.9,3.9-2.7
		c0.9-1.8,1.3-4.4,1.3-8c0-3.6-0.4-6.3-1.3-8.1C463.4,62.2,462.1,61.3,460.4,61.3z"/>
</g>
<g id="XMLID_1_">
	<path id="XMLID_2_" class="st0" d="M529.6,89.8l-0.6-4.9h-0.3c-2.3,3.1-6.8,5.8-12.8,5.8c-8.5,0-12.8-5.6-12.8-11.2
		c0-9.5,9-14.6,25.2-14.6v-0.8c0-3.2-1-9.1-9.5-9.1c-3.9,0-8,1.1-10.9,2.9l-1.7-4.7c3.5-2.1,8.5-3.5,13.8-3.5
		c12.8,0,15.9,8.2,15.9,16v14.6c0,3.4,0.2,6.7,0.7,9.4H529.6z M528.5,69.9c-8.3-0.2-17.7,1.2-17.7,8.8c0,4.6,3.3,6.8,7.2,6.8
		c5.4,0,8.9-3.2,10.1-6.5c0.3-0.7,0.4-1.5,0.4-2.3V69.9z"/>
	<path id="XMLID_5_" class="st0" d="M547.1,82.6c2.2,1.4,6.2,2.8,10,2.8c5.5,0,8.1-2.6,8.1-5.8c0-3.4-2.2-5.3-7.8-7.2
		c-7.5-2.5-11.1-6.4-11.1-11.1c0-6.3,5.4-11.5,14.4-11.5c4.2,0,8,1.1,10.3,2.4l-1.9,5.2c-1.6-1-4.7-2.3-8.6-2.3c-4.5,0-7,2.4-7,5.3
		c0,3.2,2.5,4.7,8,6.6c7.3,2.6,11,6,11,11.8c0,6.9-5.7,11.7-15.7,11.7c-4.6,0-8.8-1.1-11.8-2.7L547.1,82.6z"/>
	<path id="XMLID_7_" class="st0" d="M586.6,71.6c0.2,9.6,6.7,13.6,14.4,13.6c5.4,0,8.7-0.9,11.6-2l1.3,5.1
		c-2.7,1.1-7.3,2.4-13.9,2.4c-12.9,0-20.6-7.9-20.6-19.7c0-11.8,7.4-21.1,19.6-21.1c13.7,0,17.3,11.2,17.3,18.4
		c0,1.5-0.2,2.6-0.3,3.3H586.6z M608.9,66.5c0.1-4.5-2-11.6-10.6-11.6c-7.7,0-11.1,6.6-11.7,11.6H608.9z"/>
	<path id="XMLID_10_" class="st0" d="M624.6,82.6c2.2,1.4,6.2,2.8,10,2.8c5.5,0,8.1-2.6,8.1-5.8c0-3.4-2.2-5.3-7.8-7.2
		c-7.5-2.5-11.1-6.4-11.1-11.1c0-6.3,5.4-11.5,14.4-11.5c4.2,0,8,1.1,10.3,2.4l-1.9,5.2c-1.6-1-4.7-2.3-8.6-2.3c-4.5,0-7,2.4-7,5.3
		c0,3.2,2.5,4.7,8,6.6c7.3,2.6,11,6,11,11.8c0,6.9-5.7,11.7-15.7,11.7c-4.6,0-8.8-1.1-11.8-2.7L624.6,82.6z"/>
	<path id="XMLID_12_" class="st0" d="M697.8,70c0,14.5-10.7,20.8-20.8,20.8c-11.3,0-20.1-7.8-20.1-20.1c0-13.1,9.2-20.8,20.8-20.8
		C689.7,49.8,697.8,58,697.8,70z M664.6,70.4c0,8.6,5.3,15,12.7,15c7.3,0,12.7-6.4,12.7-15.2c0-6.6-3.5-15-12.5-15
		C668.5,55.2,664.6,62.9,664.6,70.4z"/>
	<path id="XMLID_15_" class="st0" d="M707.4,62.9c0-4.6-0.1-8.6-0.3-12.2h6.7l0.3,7.7h0.3c1.9-5.3,6.5-8.6,11.6-8.6
		c0.9,0,1.5,0.1,2.2,0.2v6.7c-0.8-0.2-1.6-0.2-2.6-0.2c-5.4,0-9.2,3.8-10.2,9.1c-0.2,1-0.3,2.1-0.3,3.3v20.9h-7.5V62.9z"/>
</g>
<g id="XMLID_31_">
	<path id="XMLID_34_" class="st0" d="M750.9,49.6l3.7,18.4c0.7,3.7,1.4,7.4,2.1,11.5h0.2c0.6-4.2,1.2-7.7,1.9-11.5l3.8-18.4h12.9
		l-13.1,41.2h-12.1L737,49.6H750.9z"/>
	<path id="XMLID_38_" class="st0" d="M793.7,38.7c0.1,3.5-2.9,6-6.9,6c-3.6,0-6.6-2.4-6.5-6c-0.1-3.7,3.1-6,6.7-6
		C790.8,32.7,793.7,35,793.7,38.7z M780.6,90.8V49.6h13.1v41.2H780.6z"/>
	<path id="XMLID_42_" class="st0" d="M802.8,62c0-4.1-0.2-8.6-0.4-12.4h11.4l0.7,6h0.3c2.2-4.4,6.1-6.7,9.7-6.7c1.3,0,2,0,2.8,0.2
		v10.9c-0.8-0.2-1.7-0.2-2.8-0.2c-2.8,0-6.5,1.6-8,5.9c-0.3,0.9-0.5,2.4-0.5,4.1v20.9h-13.2V62z"/>
	<path id="XMLID_44_" class="st0" d="M849.4,38.5v11.1h9.6v7.8h-9.6v18.8c0,4.8,2.4,6,5,6c1.3,0,2.3-0.1,3.4-0.3l0.1,8.6
		c-1.8,0.4-4.5,0.8-8,0.8c-3.8,0-7.1-0.8-9.4-2.6c-2.7-2.2-4.2-5.3-4.2-11.8V57.5h-5.8v-7.8h5.8v-8.5L849.4,38.5z"/>
	<path id="XMLID_46_" class="st0" d="M900.9,78.3c0,4.4,0.2,8.7,0.4,12.5H890l-0.7-4.4h-0.2c-2.3,2.8-6.3,5.1-11.3,5.1
		c-9.3,0-13.1-5.8-13.1-16.9V49.6h13.2v23.7c0,5.4,1.2,8.8,4.9,8.8c2.2,0,3.6-1.4,4.2-2.8c0.5-0.8,0.8-2.1,0.8-3.5V49.6h13.1V78.3z"
		/>
	<path id="XMLID_48_" class="st0" d="M932.2,90.8l-0.7-4h-0.2c-2.7,3.2-6.5,4.7-10.8,4.7c-7.4,0-12.9-5.2-12.9-12.5
		c0-10.8,11.3-15.2,22.4-15.3v-0.9c0-3.2-2.3-5.6-6.9-5.6c-3.9,0-7.1,0.8-10,2.4l-2.4-7.4c2.7-1.4,8.4-3.1,15.2-3.1
		c14.9,0,17.3,8.8,17.3,17.1v15.3c0,3.3,0.2,6.7,0.8,9.4H932.2z M930.4,70.8c-4.4,0.1-10.4,1.3-10.4,7c0,4.1,2.7,5.6,4.7,5.6
		c2.1,0,4.5-1.1,5.4-3.5c0.2-0.6,0.3-1.3,0.3-1.9V70.8z"/>
	<path id="XMLID_51_" class="st0" d="M952.4,32.6h13.1v58.3h-13.1V32.6z"/>
</g>
<g id="XMLID_20_">
	<path id="XMLID_21_" class="st1" d="M486.5,62.8c0-3,2-5,4.9-5c2.9,0,4.8,2,4.9,5c0,2.8-2,5-4.9,5
		C488.5,67.7,486.5,65.6,486.5,62.8z M486.5,80.5c0-2.9,2-5,4.9-5c2.9,0,4.8,2.1,4.9,5c0,2.9-2,5-4.9,5
		C488.5,85.5,486.5,83.3,486.5,80.5z"/>
</g>
<g id="XMLID_183_">
	<path id="XMLID_188_" class="st0" d="M74.4,95.6c-1.7,0-3.4,0-5,0c-0.4,0-0.8-0.2-1.2-0.3c-0.2-0.1-0.5-0.3-0.7-0.3
		c-1.8-0.2-3.2-1.3-4.4-2.5c-1.3-1.2-2.5-2.5-3.4-4.2c-1-2-1.2-4.1-1.3-6.2c-0.1-2.8,0-5.5-0.1-8.3c0-1.3-0.2-2.6-0.1-3.9
		c0-1.9,0-3.9,0.2-5.8c0.1-0.8,0.4-1.6,0.7-2.3c0.8-1.8,1.8-3.4,3.3-4.7c0.2-0.2,0.4-0.3,0.6-0.5c2.4-1.5,4.3-3.5,6.2-5.5
		c2.6-2.7,5.1-5.6,7.6-8.4c0.1-0.2,0.3-0.3,0.4-0.5c1.1-2,2.3-3.9,3.3-5.9c0.3-0.7,0.3-1.6,0.4-2.5c0-1-0.1-1.9-0.1-2.9
		c0-1,0.3-1.4,1.3-1.4c0.4,0,0.8,0,1.1-0.1c1.4-0.4,2.6,0.2,3.7,0.8c0.8,0.4,1.5,1.4,1.9,2.3c0.8,1.9,1.4,4,1,6.1c0,0.1,0,0.2,0,0.3
		c0.2,2.1-0.5,4.2-1.1,6.2c-0.4,1.2-0.9,2.3-1.4,3.5c-0.5,1.1-1.2,2.1-1.7,3.2c-0.4,0.9-1.1,1.2-2,1.3c-0.3,0-0.5,0-0.8,0
		c-2-0.2-3.1,0.9-4.1,2.5c-0.9,1.5-0.9,3-0.7,4.6c0.1,0.9,0.3,1.8,0.5,2.7c0.1,0.5,0,0.9-0.4,1.2c-1.6,1-2.2,2.6-2.4,4.3
		c-0.2,1.5-0.1,3,0.3,4.5c0.3,1.1,0.9,1.9,1.9,2.5c1.1,0.6,1.1,0.8,0.6,1.9c-0.5,1-0.8,2.1-0.7,3.2c0.1,1.4,0.2,2.8,1,4.1
		c0.4,0.7,1,1.2,1.6,1.7c1,0.8,1.1,1,0.3,2c-0.2,0.2-0.4,0.5-0.4,0.8c-0.2,1.7-0.4,3.3,0.2,5c0.4,1.2,0.2,1.4-1,1.4
		C77.7,95.6,76,95.6,74.4,95.6C74.4,95.6,74.4,95.6,74.4,95.6z"/>
	<path id="XMLID_187_" class="st0" d="M91.3,73.9c-1.9,0-3.8,0-5.7,0c-1.6,0-3.2,0-4.8,0c-2,0-2.3,0-3-1.9c-0.7-1.8-0.7-3.7,0.5-5.4
		c0.5-0.8,1.2-1.1,2.1-1.1c3.4,0,6.7,0,10.1,0c2.4,0,4.8-0.1,7.2-0.2c1.6,0,2.9,1.4,2.7,2.9c0,0.6,0,1.2,0,1.7c0,0.5,0,1.1-0.1,1.6
		c-0.2,1.5-0.9,2.1-2.4,2.1c-2.2,0-4.4,0-6.5,0C91.3,73.9,91.3,73.9,91.3,73.9z"/>
	<path id="XMLID_186_" class="st0" d="M89.4,84.8c-2.1,0-4.3-0.1-6.4,0c-1.6,0.1-3-1.2-2.9-2.9c0.1-0.9,0-1.8,0-2.8
		c0-1.4,1-2.8,2.8-2.8c3.8,0,7.6-0.1,11.5-0.2c0.8,0,1.5-0.1,2.3,0c1.1,0,2.5,1.1,2.5,2.2c0,1.4,0.3,2.8-0.2,4.2
		c-0.5,1.4-1.3,2.1-2.9,2.1C93.8,84.8,91.6,84.8,89.4,84.8C89.4,84.8,89.4,84.8,89.4,84.8z"/>
	<path id="XMLID_185_" class="st0" d="M94.4,63.3c-1,0.1-2,0.2-3,0.2c-2.9,0-5.8,0-8.7,0c-1.6,0-2.4-0.9-2.8-2.5
		c-0.3-1.3,0-2.5,0.1-3.7c0.1-1,1.3-2.1,2.3-2.1c4.4-0.1,8.7-0.2,13.1-0.3c0.2,0,0.3,0,0.5,0c1.1,0.1,1.7,0.5,1.9,1.5
		c0.3,1.7,0.6,3.4,0.2,5.1c-0.3,1.2-0.8,1.7-2,1.8C95.5,63.4,95,63.4,94.4,63.3C94.4,63.3,94.4,63.3,94.4,63.3z"/>
	<path id="XMLID_184_" class="st0" d="M89.1,87.3c1.3,0,2.7,0,4,0c0.7,0,1.1,0.3,1.5,0.9c1.3,1.8,0.8,3.8,0.5,5.7
		c-0.1,0.9-0.9,1.5-1.9,1.6c-0.7,0.1-1.3,0.1-2,0.1c-2.1,0-4.2,0-6.3,0c-1.6,0-2.1-0.4-2.3-2c-0.2-1.1-0.3-2.3-0.3-3.4
		c0-0.3,0-0.7,0.1-1c0.7-1.4,0.7-1.8,2.5-1.9C86.3,87.3,87.7,87.4,89.1,87.3C89.1,87.3,89.1,87.3,89.1,87.3z"/>
</g>
</svg>
